STARTFONT 2.1
FONT -TakWolf-Fusion Pixel 12px Prop zh_hans-Regular-R-Normal-Sans Serif-12-120-75-75-P-118-ISO10646-1
SIZE 12 75 75
FONTBOUNDINGBOX 12 16 0 -3
STARTPROPERTIES 24
FOUNDRY "TakWolf"
FAMILY_NAME "Fusion Pixel 12px Prop zh_hans"
WEIGHT_NAME "Regular"
SLANT "R"
SETWIDTH_NAME "Normal"
ADD_STYLE_NAME "Sans Serif"
PIXEL_SIZE 12
POINT_SIZE 120
RESOLUTION_X 75
RESOLUTION_Y 75
SPACING "P"
AVERAGE_WIDTH 118
CHARSET_REGISTRY "ISO10646"
CHARSET_ENCODING "1"
DEFAULT_CHAR -1
FONT_ASCENT 13
FONT_DESCENT 3
X_HEIGHT 6
CAP_HEIGHT 9
UNDERLINE_POSITION -1
UNDERLINE_THICKNESS 1
FONT_VERSION "2026.07.20"
COPYRIGHT "Copyright (c) 2022, TakWolf (https://takwolf.com)"
LICENSE "This Font Software is licensed under the SIL Open Font License, Version 1.1"
ENDPROPERTIES
CHARS 661
STARTCHAR u0020
ENCODING 32
SWIDTH 500 0
DWIDTH 6 0
BBX 6 18 0 -4
BITMAP
00
00
00
00
00
00
00
00
00
00
00
00
00
00
00
00
00
00
ENDCHAR
STARTCHAR u0021
ENCODING 33
SWIDTH 334 0
DWIDTH 4 0
BBX 4 18 0 -4
BITMAP
00
00
00
00
00
40
40
40
40
40
40
40
00
40
00
00
00
00
ENDCHAR
STARTCHAR u0022
ENCODING 34
SWIDTH 500 0
DWIDTH 6 0
BBX 6 18 0 -4
BITMAP
00
00
00
00
00
50
50
50
00
00
00
00
00
00
00
00
00
00
ENDCHAR
STARTCHAR u0023
ENCODING 35
SWIDTH 584 0
DWIDTH 7 0
BBX 7 18 0 -4
BITMAP
00
00
00
00
00
48
48
FC
48
48
48
FC
48
48
00
00
00
00
ENDCHAR
STARTCHAR u0024
ENCODING 36
SWIDTH 500 0
DWIDTH 6 0
BBX 6 18 0 -4
BITMAP
00
00
00
00
20
70
A8
A0
A0
70
28
28
A8
70
20
00
00
00
ENDCHAR
STARTCHAR u0025
ENCODING 37
SWIDTH 667 0
DWIDTH 8 0
BBX 8 18 0 -4
BITMAP
00
00
00
00
00
44
A4
48
08
10
20
24
4A
44
00
00
00
00
ENDCHAR
STARTCHAR u0026
ENCODING 38
SWIDTH 584 0
DWIDTH 7 0
BBX 7 18 0 -4
BITMAP
00
00
00
00
00
30
48
48
30
64
94
88
88
74
00
00
00
00
ENDCHAR
STARTCHAR u0027
ENCODING 39
SWIDTH 334 0
DWIDTH 4 0
BBX 4 18 0 -4
BITMAP
00
00
00
00
00
40
40
40
00
00
00
00
00
00
00
00
00
00
ENDCHAR
STARTCHAR u0028
ENCODING 40
SWIDTH 500 0
DWIDTH 6 0
BBX 6 18 0 -4
BITMAP
00
00
00
00
10
20
20
40
40
40
40
40
20
20
10
00
00
00
ENDCHAR
STARTCHAR u0029
ENCODING 41
SWIDTH 500 0
DWIDTH 6 0
BBX 6 18 0 -4
BITMAP
00
00
00
00
40
20
20
10
10
10
10
10
20
20
40
00
00
00
ENDCHAR
STARTCHAR u002A
ENCODING 42
SWIDTH 500 0
DWIDTH 6 0
BBX 6 18 0 -4
BITMAP
00
00
00
00
00
00
00
00
20
A8
70
A8
20
00
00
00
00
00
ENDCHAR
STARTCHAR u002B
ENCODING 43
SWIDTH 500 0
DWIDTH 6 0
BBX 6 18 0 -4
BITMAP
00
00
00
00
00
00
00
00
20
20
F8
20
20
00
00
00
00
00
ENDCHAR
STARTCHAR u002C
ENCODING 44
SWIDTH 334 0
DWIDTH 4 0
BBX 4 18 0 -4
BITMAP
00
00
00
00
00
00
00
00
00
00
00
00
00
40
40
80
00
00
ENDCHAR
STARTCHAR u002D
ENCODING 45
SWIDTH 500 0
DWIDTH 6 0
BBX 6 18 0 -4
BITMAP
00
00
00
00
00
00
00
00
00
00
F8
00
00
00
00
00
00
00
ENDCHAR
STARTCHAR u002E
ENCODING 46
SWIDTH 334 0
DWIDTH 4 0
BBX 4 18 0 -4
BITMAP
00
00
00
00
00
00
00
00
00
00
00
00
00
40
00
00
00
00
ENDCHAR
STARTCHAR u002F
ENCODING 47
SWIDTH 500 0
DWIDTH 6 0
BBX 6 18 0 -4
BITMAP
00
00
00
00
08
08
10
10
20
20
20
40
40
80
80
00
00
00
ENDCHAR
STARTCHAR u0030
ENCODING 48
SWIDTH 500 0
DWIDTH 6 0
BBX 6 18 0 -4
BITMAP
00
00
00
00
00
70
88
88
98
A8
C8
88
88
70
00
00
00
00
ENDCHAR
STARTCHAR u0031
ENCODING 49
SWIDTH 500 0
DWIDTH 6 0
BBX 6 18 0 -4
BITMAP
00
00
00
00
00
20
60
20
20
20
20
20
20
70
00
00
00
00
ENDCHAR
STARTCHAR u0032
ENCODING 50
SWIDTH 500 0
DWIDTH 6 0
BBX 6 18 0 -4
BITMAP
00
00
00
00
00
70
88
08
08
10
20
40
80
F8
00
00
00
00
ENDCHAR
STARTCHAR u0033
ENCODING 51
SWIDTH 500 0
DWIDTH 6 0
BBX 6 18 0 -4
BITMAP
00
00
00
00
00
70
88
08
08
30
08
08
88
70
00
00
00
00
ENDCHAR
STARTCHAR u0034
ENCODING 52
SWIDTH 500 0
DWIDTH 6 0
BBX 6 18 0 -4
BITMAP
00
00
00
00
00
10
30
30
50
50
90
F8
10
10
00
00
00
00
ENDCHAR
STARTCHAR u0035
ENCODING 53
SWIDTH 500 0
DWIDTH 6 0
BBX 6 18 0 -4
BITMAP
00
00
00
00
00
F8
80
80
80
F0
08
08
88
70
00
00
00
00
ENDCHAR
STARTCHAR u0036
ENCODING 54
SWIDTH 500 0
DWIDTH 6 0
BBX 6 18 0 -4
BITMAP
00
00
00
00
00
70
88
80
80
F0
88
88
88
70
00
00
00
00
ENDCHAR
STARTCHAR u0037
ENCODING 55
SWIDTH 500 0
DWIDTH 6 0
BBX 6 18 0 -4
BITMAP
00
00
00
00
00
F8
08
08
10
10
20
20
20
20
00
00
00
00
ENDCHAR
STARTCHAR u0038
ENCODING 56
SWIDTH 500 0
DWIDTH 6 0
BBX 6 18 0 -4
BITMAP
00
00
00
00
00
70
88
88
88
70
88
88
88
70
00
00
00
00
ENDCHAR
STARTCHAR u0039
ENCODING 57
SWIDTH 500 0
DWIDTH 6 0
BBX 6 18 0 -4
BITMAP
00
00
00
00
00
70
88
88
88
78
08
08
88
70
00
00
00
00
ENDCHAR
STARTCHAR u003A
ENCODING 58
SWIDTH 334 0
DWIDTH 4 0
BBX 4 18 0 -4
BITMAP
00
00
00
00
00
00
00
00
40
00
00
00
00
40
00
00
00
00
ENDCHAR
STARTCHAR u003B
ENCODING 59
SWIDTH 334 0
DWIDTH 4 0
BBX 4 18 0 -4
BITMAP
00
00
00
00
00
00
00
00
40
00
00
00
00
40
40
80
00
00
ENDCHAR
STARTCHAR u003C
ENCODING 60
SWIDTH 417 0
DWIDTH 5 0
BBX 5 18 0 -4
BITMAP
00
00
00
00
00
00
00
10
20
40
80
40
20
10
00
00
00
00
ENDCHAR
STARTCHAR u003D
ENCODING 61
SWIDTH 500 0
DWIDTH 6 0
BBX 6 18 0 -4
BITMAP
00
00
00
00
00
00
00
00
00
F8
00
F8
00
00
00
00
00
00
ENDCHAR
STARTCHAR u003E
ENCODING 62
SWIDTH 417 0
DWIDTH 5 0
BBX 5 18 0 -4
BITMAP
00
00
00
00
00
00
00
80
40
20
10
20
40
80
00
00
00
00
ENDCHAR
STARTCHAR u003F
ENCODING 63
SWIDTH 500 0
DWIDTH 6 0
BBX 6 18 0 -4
BITMAP
00
00
00
00
00
70
88
08
08
10
20
20
00
20
00
00
00
00
ENDCHAR
STARTCHAR u0040
ENCODING 64
SWIDTH 667 0
DWIDTH 8 0
BBX 8 18 0 -4
BITMAP
00
00
00
00
00
38
44
9A
AA
AA
AA
AA
B6
40
3C
00
00
00
ENDCHAR
STARTCHAR u0041
ENCODING 65
SWIDTH 667 0
DWIDTH 8 0
BBX 8 18 0 -4
BITMAP
00
00
00
00
00
10
10
28
28
44
7C
44
82
82
00
00
00
00
ENDCHAR
STARTCHAR u0042
ENCODING 66
SWIDTH 584 0
DWIDTH 7 0
BBX 7 18 0 -4
BITMAP
00
00
00
00
00
F8
84
84
84
F8
84
84
84
F8
00
00
00
00
ENDCHAR
STARTCHAR u0043
ENCODING 67
SWIDTH 584 0
DWIDTH 7 0
BBX 7 18 0 -4
BITMAP
00
00
00
00
00
38
44
80
80
80
80
80
44
38
00
00
00
00
ENDCHAR
STARTCHAR u0044
ENCODING 68
SWIDTH 584 0
DWIDTH 7 0
BBX 7 18 0 -4
BITMAP
00
00
00
00
00
F0
88
84
84
84
84
84
88
F0
00
00
00
00
ENDCHAR
STARTCHAR u0045
ENCODING 69
SWIDTH 584 0
DWIDTH 7 0
BBX 7 18 0 -4
BITMAP
00
00
00
00
00
FC
80
80
80
F8
80
80
80
FC
00
00
00
00
ENDCHAR
STARTCHAR u0046
ENCODING 70
SWIDTH 584 0
DWIDTH 7 0
BBX 7 18 0 -4
BITMAP
00
00
00
00
00
FC
80
80
80
F8
80
80
80
80
00
00
00
00
ENDCHAR
STARTCHAR u0047
ENCODING 71
SWIDTH 584 0
DWIDTH 7 0
BBX 7 18 0 -4
BITMAP
00
00
00
00
00
38
44
80
80
80
8C
84
44
3C
00
00
00
00
ENDCHAR
STARTCHAR u0048
ENCODING 72
SWIDTH 584 0
DWIDTH 7 0
BBX 7 18 0 -4
BITMAP
00
00
00
00
00
84
84
84
84
FC
84
84
84
84
00
00
00
00
ENDCHAR
STARTCHAR u0049
ENCODING 73
SWIDTH 334 0
DWIDTH 4 0
BBX 4 18 0 -4
BITMAP
00
00
00
00
00
E0
40
40
40
40
40
40
40
E0
00
00
00
00
ENDCHAR
STARTCHAR u004A
ENCODING 74
SWIDTH 500 0
DWIDTH 6 0
BBX 6 18 0 -4
BITMAP
00
00
00
00
00
08
08
08
08
08
08
88
88
70
00
00
00
00
ENDCHAR
STARTCHAR u004B
ENCODING 75
SWIDTH 584 0
DWIDTH 7 0
BBX 7 18 0 -4
BITMAP
00
00
00
00
00
84
88
90
A0
C0
A0
90
88
84
00
00
00
00
ENDCHAR
STARTCHAR u004C
ENCODING 76
SWIDTH 500 0
DWIDTH 6 0
BBX 6 18 0 -4
BITMAP
00
00
00
00
00
80
80
80
80
80
80
80
80
F8
00
00
00
00
ENDCHAR
STARTCHAR u004D
ENCODING 77
SWIDTH 667 0
DWIDTH 8 0
BBX 8 18 0 -4
BITMAP
00
00
00
00
00
82
82
C6
C6
AA
AA
92
92
92
00
00
00
00
ENDCHAR
STARTCHAR u004E
ENCODING 78
SWIDTH 584 0
DWIDTH 7 0
BBX 7 18 0 -4
BITMAP
00
00
00
00
00
84
C4
A4
A4
94
94
8C
8C
84
00
00
00
00
ENDCHAR
STARTCHAR u004F
ENCODING 79
SWIDTH 667 0
DWIDTH 8 0
BBX 8 18 0 -4
BITMAP
00
00
00
00
00
38
44
82
82
82
82
82
44
38
00
00
00
00
ENDCHAR
STARTCHAR u0050
ENCODING 80
SWIDTH 584 0
DWIDTH 7 0
BBX 7 18 0 -4
BITMAP
00
00
00
00
00
F8
84
84
84
F8
80
80
80
80
00
00
00
00
ENDCHAR
STARTCHAR u0051
ENCODING 81
SWIDTH 667 0
DWIDTH 8 0
BBX 8 18 0 -4
BITMAP
00
00
00
00
00
38
44
82
82
82
82
8A
44
3A
00
00
00
00
ENDCHAR
STARTCHAR u0052
ENCODING 82
SWIDTH 584 0
DWIDTH 7 0
BBX 7 18 0 -4
BITMAP
00
00
00
00
00
F8
84
84
84
F8
90
88
88
84
00
00
00
00
ENDCHAR
STARTCHAR u0053
ENCODING 83
SWIDTH 584 0
DWIDTH 7 0
BBX 7 18 0 -4
BITMAP
00
00
00
00
00
78
84
80
40
30
08
04
84
78
00
00
00
00
ENDCHAR
STARTCHAR u0054
ENCODING 84
SWIDTH 667 0
DWIDTH 8 0
BBX 8 18 0 -4
BITMAP
00
00
00
00
00
FE
10
10
10
10
10
10
10
10
00
00
00
00
ENDCHAR
STARTCHAR u0055
ENCODING 85
SWIDTH 584 0
DWIDTH 7 0
BBX 7 18 0 -4
BITMAP
00
00
00
00
00
84
84
84
84
84
84
84
84
78
00
00
00
00
ENDCHAR
STARTCHAR u0056
ENCODING 86
SWIDTH 667 0
DWIDTH 8 0
BBX 8 18 0 -4
BITMAP
00
00
00
00
00
82
82
44
44
44
28
28
10
10
00
00
00
00
ENDCHAR
STARTCHAR u0057
ENCODING 87
SWIDTH 834 0
DWIDTH 10 0
BBX 10 18 0 -4
BITMAP
0000
0000
0000
0000
0000
8880
8880
8880
5500
5500
5500
2200
2200
2200
0000
0000
0000
0000
ENDCHAR
STARTCHAR u0058
ENCODING 88
SWIDTH 667 0
DWIDTH 8 0
BBX 8 18 0 -4
BITMAP
00
00
00
00
00
82
44
44
28
10
28
44
44
82
00
00
00
00
ENDCHAR
STARTCHAR u0059
ENCODING 89
SWIDTH 667 0
DWIDTH 8 0
BBX 8 18 0 -4
BITMAP
00
00
00
00
00
82
44
44
28
28
10
10
10
10
00
00
00
00
ENDCHAR
STARTCHAR u005A
ENCODING 90
SWIDTH 584 0
DWIDTH 7 0
BBX 7 18 0 -4
BITMAP
00
00
00
00
00
FC
04
08
10
20
20
40
80
FC
00
00
00
00
ENDCHAR
STARTCHAR u005B
ENCODING 91
SWIDTH 500 0
DWIDTH 6 0
BBX 6 18 0 -4
BITMAP
00
00
00
00
70
40
40
40
40
40
40
40
40
40
70
00
00
00
ENDCHAR
STARTCHAR u005C
ENCODING 92
SWIDTH 500 0
DWIDTH 6 0
BBX 6 18 0 -4
BITMAP
00
00
00
00
80
80
40
40
20
20
20
10
10
08
08
00
00
00
ENDCHAR
STARTCHAR u005D
ENCODING 93
SWIDTH 500 0
DWIDTH 6 0
BBX 6 18 0 -4
BITMAP
00
00
00
00
70
10
10
10
10
10
10
10
10
10
70
00
00
00
ENDCHAR
STARTCHAR u005E
ENCODING 94
SWIDTH 500 0
DWIDTH 6 0
BBX 6 18 0 -4
BITMAP
00
00
00
00
00
20
50
88
00
00
00
00
00
00
00
00
00
00
ENDCHAR
STARTCHAR u005F
ENCODING 95
SWIDTH 500 0
DWIDTH 6 0
BBX 6 18 0 -4
BITMAP
00
00
00
00
00
00
00
00
00
00
00
00
00
00
00
F8
00
00
ENDCHAR
STARTCHAR u0060
ENCODING 96
SWIDTH 417 0
DWIDTH 5 0
BBX 5 18 0 -4
BITMAP
00
00
00
00
00
40
20
00
00
00
00
00
00
00
00
00
00
00
ENDCHAR
STARTCHAR u0061
ENCODING 97
SWIDTH 500 0
DWIDTH 6 0
BBX 6 18 0 -4
BITMAP
00
00
00
00
00
00
00
00
70
08
78
88
88
78
00
00
00
00
ENDCHAR
STARTCHAR u0062
ENCODING 98
SWIDTH 500 0
DWIDTH 6 0
BBX 6 18 0 -4
BITMAP
00
00
00
00
00
80
80
80
F0
88
88
88
88
F0
00
00
00
00
ENDCHAR
STARTCHAR u0063
ENCODING 99
SWIDTH 500 0
DWIDTH 6 0
BBX 6 18 0 -4
BITMAP
00
00
00
00
00
00
00
00
70
88
80
80
88
70
00
00
00
00
ENDCHAR
STARTCHAR u0064
ENCODING 100
SWIDTH 500 0
DWIDTH 6 0
BBX 6 18 0 -4
BITMAP
00
00
00
00
00
08
08
08
78
88
88
88
88
78
00
00
00
00
ENDCHAR
STARTCHAR u0065
ENCODING 101
SWIDTH 500 0
DWIDTH 6 0
BBX 6 18 0 -4
BITMAP
00
00
00
00
00
00
00
00
70
88
F8
80
88
70
00
00
00
00
ENDCHAR
STARTCHAR u0066
ENCODING 102
SWIDTH 417 0
DWIDTH 5 0
BBX 5 18 0 -4
BITMAP
00
00
00
00
00
30
40
40
F0
40
40
40
40
40
00
00
00
00
ENDCHAR
STARTCHAR u0067
ENCODING 103
SWIDTH 500 0
DWIDTH 6 0
BBX 6 18 0 -4
BITMAP
00
00
00
00
00
00
00
00
78
88
88
88
88
78
08
70
00
00
ENDCHAR
STARTCHAR u0068
ENCODING 104
SWIDTH 500 0
DWIDTH 6 0
BBX 6 18 0 -4
BITMAP
00
00
00
00
00
80
80
80
B0
C8
88
88
88
88
00
00
00
00
ENDCHAR
STARTCHAR u0069
ENCODING 105
SWIDTH 334 0
DWIDTH 4 0
BBX 4 18 0 -4
BITMAP
00
00
00
00
00
40
00
00
C0
40
40
40
40
E0
00
00
00
00
ENDCHAR
STARTCHAR u006A
ENCODING 106
SWIDTH 334 0
DWIDTH 4 0
BBX 4 18 0 -4
BITMAP
00
00
00
00
00
20
00
00
E0
20
20
20
20
20
20
C0
00
00
ENDCHAR
STARTCHAR u006B
ENCODING 107
SWIDTH 500 0
DWIDTH 6 0
BBX 6 18 0 -4
BITMAP
00
00
00
00
00
80
80
80
88
B0
C0
A0
90
88
00
00
00
00
ENDCHAR
STARTCHAR u006C
ENCODING 108
SWIDTH 334 0
DWIDTH 4 0
BBX 4 18 0 -4
BITMAP
00
00
00
00
00
C0
40
40
40
40
40
40
40
60
00
00
00
00
ENDCHAR
STARTCHAR u006D
ENCODING 109
SWIDTH 667 0
DWIDTH 8 0
BBX 8 18 0 -4
BITMAP
00
00
00
00
00
00
00
00
EC
92
92
92
92
92
00
00
00
00
ENDCHAR
STARTCHAR u006E
ENCODING 110
SWIDTH 500 0
DWIDTH 6 0
BBX 6 18 0 -4
BITMAP
00
00
00
00
00
00
00
00
B0
C8
88
88
88
88
00
00
00
00
ENDCHAR
STARTCHAR u006F
ENCODING 111
SWIDTH 500 0
DWIDTH 6 0
BBX 6 18 0 -4
BITMAP
00
00
00
00
00
00
00
00
70
88
88
88
88
70
00
00
00
00
ENDCHAR
STARTCHAR u0070
ENCODING 112
SWIDTH 500 0
DWIDTH 6 0
BBX 6 18 0 -4
BITMAP
00
00
00
00
00
00
00
00
F0
88
88
88
88
F0
80
80
00
00
ENDCHAR
STARTCHAR u0071
ENCODING 113
SWIDTH 500 0
DWIDTH 6 0
BBX 6 18 0 -4
BITMAP
00
00
00
00
00
00
00
00
78
88
88
88
88
78
08
08
00
00
ENDCHAR
STARTCHAR u0072
ENCODING 114
SWIDTH 417 0
DWIDTH 5 0
BBX 5 18 0 -4
BITMAP
00
00
00
00
00
00
00
00
B0
C0
80
80
80
80
00
00
00
00
ENDCHAR
STARTCHAR u0073
ENCODING 115
SWIDTH 500 0
DWIDTH 6 0
BBX 6 18 0 -4
BITMAP
00
00
00
00
00
00
00
00
70
88
60
10
88
70
00
00
00
00
ENDCHAR
STARTCHAR u0074
ENCODING 116
SWIDTH 417 0
DWIDTH 5 0
BBX 5 18 0 -4
BITMAP
00
00
00
00
00
40
40
40
F0
40
40
40
40
30
00
00
00
00
ENDCHAR
STARTCHAR u0075
ENCODING 117
SWIDTH 500 0
DWIDTH 6 0
BBX 6 18 0 -4
BITMAP
00
00
00
00
00
00
00
00
88
88
88
88
98
68
00
00
00
00
ENDCHAR
STARTCHAR u0076
ENCODING 118
SWIDTH 500 0
DWIDTH 6 0
BBX 6 18 0 -4
BITMAP
00
00
00
00
00
00
00
00
88
88
50
50
20
20
00
00
00
00
ENDCHAR
STARTCHAR u0077
ENCODING 119
SWIDTH 667 0
DWIDTH 8 0
BBX 8 18 0 -4
BITMAP
00
00
00
00
00
00
00
00
92
92
AA
AA
44
44
00
00
00
00
ENDCHAR
STARTCHAR u0078
ENCODING 120
SWIDTH 500 0
DWIDTH 6 0
BBX 6 18 0 -4
BITMAP
00
00
00
00
00
00
00
00
88
50
20
20
50
88
00
00
00
00
ENDCHAR
STARTCHAR u0079
ENCODING 121
SWIDTH 500 0
DWIDTH 6 0
BBX 6 18 0 -4
BITMAP
00
00
00
00
00
00
00
00
88
88
88
50
50
20
20
C0
00
00
ENDCHAR
STARTCHAR u007A
ENCODING 122
SWIDTH 500 0
DWIDTH 6 0
BBX 6 18 0 -4
BITMAP
00
00
00
00
00
00
00
00
F8
10
20
40
80
F8
00
00
00
00
ENDCHAR
STARTCHAR u007B
ENCODING 123
SWIDTH 584 0
DWIDTH 7 0
BBX 7 18 0 -4
BITMAP
00
00
00
00
18
20
20
20
20
40
20
20
20
20
18
00
00
00
ENDCHAR
STARTCHAR u007C
ENCODING 124
SWIDTH 334 0
DWIDTH 4 0
BBX 4 18 0 -4
BITMAP
00
00
00
00
40
40
40
40
40
40
40
40
40
40
40
00
00
00
ENDCHAR
STARTCHAR u007D
ENCODING 125
SWIDTH 584 0
DWIDTH 7 0
BBX 7 18 0 -4
BITMAP
00
00
00
00
60
10
10
10
10
08
10
10
10
10
60
00
00
00
ENDCHAR
STARTCHAR u007E
ENCODING 126
SWIDTH 500 0
DWIDTH 6 0
BBX 6 18 0 -4
BITMAP
00
00
00
00
00
00
00
00
40
A8
10
00
00
00
00
00
00
00
ENDCHAR
STARTCHAR u3002
ENCODING 12290
SWIDTH 1000 0
DWIDTH 12 0
BBX 12 12 0 -1
BITMAP
0000
0000
0000
0000
0000
0000
0000
0000
3000
4800
4800
3000
ENDCHAR
STARTCHAR u4E00
ENCODING 19968
SWIDTH 1000 0
DWIDTH 12 0
BBX 12 12 0 -1
BITMAP
0000
0000
0000
0000
0000
0000
FFE0
0000
0000
0000
0000
0000
ENDCHAR
STARTCHAR u4E09
ENCODING 19977
SWIDTH 1000 0
DWIDTH 12 0
BBX 12 12 0 -1
BITMAP
0000
7FC0
0000
0000
0000
0000
3F80
0000
0000
0000
0000
FFE0
ENDCHAR
STARTCHAR u4E0A
ENCODING 19978
SWIDTH 1000 0
DWIDTH 12 0
BBX 12 12 0 -1
BITMAP
0000
0400
0400
0400
0400
07C0
0400
0400
0400
0400
0400
FFE0
ENDCHAR
STARTCHAR u4E0B
ENCODING 19979
SWIDTH 1000 0
DWIDTH 12 0
BBX 12 12 0 -1
BITMAP
0000
FFE0
0400
0400
0400
0500
0480
0440
0400
0400
0400
0400
ENDCHAR
STARTCHAR u4E0D
ENCODING 19981
SWIDTH 1000 0
DWIDTH 12 0
BBX 12 12 0 -1
BITMAP
0000
FFE0
0200
0400
0C00
1500
2480
C440
0420
0400
0400
0400
ENDCHAR
STARTCHAR u4E0E
ENCODING 19982
SWIDTH 1000 0
DWIDTH 12 0
BBX 12 12 0 -1
BITMAP
0000
1000
1FE0
1000
2000
3FE0
0020
0020
FF20
0020
0020
01C0
ENDCHAR
STARTCHAR u4E14
ENCODING 19988
SWIDTH 1000 0
DWIDTH 12 0
BBX 12 12 0 -1
BITMAP
0000
3F80
2080
2080
3F80
2080
2080
3F80
2080
2080
2080
FFE0
ENDCHAR
STARTCHAR u4E1A
ENCODING 19994
SWIDTH 1000 0
DWIDTH 12 0
BBX 12 12 0 -1
BITMAP
0000
1100
1100
1100
9120
9120
5140
5140
1100
1100
1100
FFE0
ENDCHAR
STARTCHAR u4E2A
ENCODING 20010
SWIDTH 1000 0
DWIDTH 12 0
BBX 12 12 0 -1
BITMAP
0000
0400
0A00
1100
2080
C460
0400
0400
0400
0400
0400
0400
ENDCHAR
STARTCHAR u4E2D
ENCODING 20013
SWIDTH 1000 0
DWIDTH 12 0
BBX 12 12 0 -1
BITMAP
0000
0400
0400
FFE0
8420
8420
8420
FFE0
0400
0400
0400
0400
ENDCHAR
STARTCHAR u4E3A
ENCODING 20026
SWIDTH 1000 0
DWIDTH 12 0
BBX 12 12 0 -1
BITMAP
0000
4400
2400
0400
FFE0
0420
0520
08A0
08A0
1020
2020
C0C0
ENDCHAR
STARTCHAR u4E3B
ENCODING 20027
SWIDTH 1000 0
DWIDTH 12 0
BBX 12 12 0 -1
BITMAP
0000
0800
0400
FFE0
0400
0400
0400
7FC0
0400
0400
0400
FFE0
ENDCHAR
STARTCHAR u4E4B
ENCODING 20043
SWIDTH 1000 0
DWIDTH 12 0
BBX 12 12 0 -1
BITMAP
0000
0800
0400
FFC0
0080
0100
0200
0400
0800
3000
4C00
83E0
ENDCHAR
STARTCHAR u4E50
ENCODING 20048
SWIDTH 1000 0
DWIDTH 12 0
BBX 12 12 0 -1
BITMAP
0000
01C0
7E00
4000
4400
8400
FFE0
0400
2480
4440
8420
1C00
ENDCHAR
STARTCHAR u4E5F
ENCODING 20063
SWIDTH 1000 0
DWIDTH 12 0
BBX 12 12 0 -1
BITMAP
0000
0400
2400
24C0
2740
3C40
E440
24C0
2400
2020
2020
1FE0
ENDCHAR
STARTCHAR u4E70
ENCODING 20080
SWIDTH 1000 0
DWIDTH 12 0
BBX 12 12 0 -1
BITMAP
0000
FFE0
0020
2240
1200
4200
2200
FFE0
0400
0900
3080
C060
ENDCHAR
STARTCHAR u4E86
ENCODING 20102
SWIDTH 1000 0
DWIDTH 12 0
BBX 12 12 0 -1
BITMAP
0000
7FC0
0040
0080
0100
0200
0200
0200
0200
0200
0200
0E00
ENDCHAR
STARTCHAR u4E8E
ENCODING 20110
SWIDTH 1000 0
DWIDTH 12 0
BBX 12 12 0 -1
BITMAP
0000
7FC0
0400
0400
0400
0400
FFE0
0400
0400
0400
0400
1C00
ENDCHAR
STARTCHAR u4E92
ENCODING 20114
SWIDTH 1000 0
DWIDTH 12 0
BBX 12 12 0 -1
BITMAP
0000
FFE0
1000
1000
1FC0
2040
2080
4080
7F00
0100
0100
FFE0
ENDCHAR
STARTCHAR u4E9B
ENCODING 20123
SWIDTH 1000 0
DWIDTH 12 0
BBX 12 12 0 -1
BITMAP
0000
1100
5120
5D40
5180
5120
5D20
E0E0
0000
3F80
0000
FFE0
ENDCHAR
STARTCHAR u4EA1
ENCODING 20129
SWIDTH 1000 0
DWIDTH 12 0
BBX 12 12 0 -1
BITMAP
0000
0800
0400
FFE0
2000
2000
2000
2000
2000
2000
2000
3FC0
ENDCHAR
STARTCHAR u4EBA
ENCODING 20154
SWIDTH 1000 0
DWIDTH 12 0
BBX 12 12 0 -1
BITMAP
0000
0400
0400
0400
0400
0A00
0A00
1100
1100
2080
4040
8020
ENDCHAR
STARTCHAR u4ECD
ENCODING 20173
SWIDTH 1000 0
DWIDTH 12 0
BBX 12 12 0 -1
BITMAP
0000
2FC0
2440
4440
4480
C4E0
4420
4420
4420
4820
4820
50C0
ENDCHAR
STARTCHAR u4ECE
ENCODING 20174
SWIDTH 1000 0
DWIDTH 12 0
BBX 12 12 0 -1
BITMAP
0000
1100
1100
1100
1100
1100
2A80
2A80
2A80
4440
4440
8820
ENDCHAR
STARTCHAR u4ED6
ENCODING 20182
SWIDTH 1000 0
DWIDTH 12 0
BBX 12 12 0 -1
BITMAP
0000
2100
2900
4960
4BA0
DD20
4920
4960
4900
4820
4820
47E0
ENDCHAR
STARTCHAR u4EE5-ZH_CN
ENCODING 20197
SWIDTH 1000 0
DWIDTH 12 0
BBX 12 12 0 -1
BITMAP
0000
0080
4880
4480
4480
4080
4080
4900
5100
6280
4440
1820
ENDCHAR
STARTCHAR u4EEC
ENCODING 20204
SWIDTH 1000 0
DWIDTH 12 0
BBX 12 12 0 -1
BITMAP
0000
29E0
2420
4020
4820
C820
4820
4820
4820
4820
4820
48E0
ENDCHAR
STARTCHAR u4EF6
ENCODING 20214
SWIDTH 1000 0
DWIDTH 12 0
BBX 12 12 0 -1
BITMAP
0000
2900
2900
4FE0
5100
C100
4100
5FE0
4100
4100
4100
4100
ENDCHAR
STARTCHAR u4EFB
ENCODING 20219
SWIDTH 1000 0
DWIDTH 12 0
BBX 12 12 0 -1
BITMAP
0000
20C0
2F00
4100
4100
C100
5FE0
4100
4100
4100
4100
4FC0
ENDCHAR
STARTCHAR u4F10
ENCODING 20240
SWIDTH 1000 0
DWIDTH 12 0
BBX 12 12 0 -1
BITMAP
0000
2280
2240
4200
43E0
DE00
4240
4280
4100
4120
46A0
5860
ENDCHAR
STARTCHAR u4F1A
ENCODING 20250
SWIDTH 1000 0
DWIDTH 12 0
BBX 12 12 0 -1
BITMAP
0000
0400
0A00
3180
C060
3F80
0000
0000
FFE0
1000
2080
7F40
ENDCHAR
STARTCHAR u4F20
ENCODING 20256
SWIDTH 1000 0
DWIDTH 12 0
BBX 12 12 0 -1
BITMAP
0000
2100
2FC0
4200
4200
DFE0
4400
4FC0
4040
4480
4300
4080
ENDCHAR
STARTCHAR u4F24
ENCODING 20260
SWIDTH 1000 0
DWIDTH 12 0
BBX 12 12 0 -1
BITMAP
0000
2400
27E0
4800
5200
C200
4FE0
4220
4220
4420
4420
48C0
ENDCHAR
STARTCHAR u4F46
ENCODING 20294
SWIDTH 1000 0
DWIDTH 12 0
BBX 12 12 0 -1
BITMAP
0000
2FC0
2840
4840
4840
CFC0
4840
4840
4840
4FC0
4000
5FE0
ENDCHAR
STARTCHAR u4F4D
ENCODING 20301
SWIDTH 1000 0
DWIDTH 12 0
BBX 12 12 0 -1
BITMAP
0000
2200
2100
5FE0
4000
C840
4840
4440
4480
4480
4100
5FE0
ENDCHAR
STARTCHAR u4F4F
ENCODING 20303
SWIDTH 1000 0
DWIDTH 12 0
BBX 12 12 0 -1
BITMAP
0000
2200
2100
5FE0
4100
C100
4100
4FC0
4100
4100
4100
5FE0
ENDCHAR
STARTCHAR u4F53
ENCODING 20307
SWIDTH 1000 0
DWIDTH 12 0
BBX 12 12 0 -1
BITMAP
0000
2200
2200
5FE0
4200
C700
4A80
4A80
5240
6FA0
4200
4200
ENDCHAR
STARTCHAR u4F59
ENCODING 20313
SWIDTH 1000 0
DWIDTH 12 0
BBX 12 12 0 -1
BITMAP
0000
0E00
1100
2080
DF60
0400
0400
7FC0
0400
2480
C460
0C00
ENDCHAR
STARTCHAR u4F5C
ENCODING 20316
SWIDTH 1000 0
DWIDTH 12 0
BBX 12 12 0 -1
BITMAP
0000
2400
2400
47E0
4A00
D200
43E0
4200
4200
43E0
4200
4200
ENDCHAR
STARTCHAR u4F60-ZH_CN
ENCODING 20320
SWIDTH 1000 0
DWIDTH 12 0
BBX 12 12 0 -1
BITMAP
0000
2800
2FE0
4820
5120
C100
4540
4540
4920
5120
4100
4300
ENDCHAR
STARTCHAR u4F7F
ENCODING 20351
SWIDTH 1000 0
DWIDTH 12 0
BBX 12 12 0 -1
BITMAP
0000
2100
2FE0
4100
4FE0
C920
4920
4FE0
4500
4200
4500
58E0
ENDCHAR
STARTCHAR u4F9B
ENCODING 20379
SWIDTH 1000 0
DWIDTH 12 0
BBX 12 12 0 -1
BITMAP
0000
2480
2480
5FE0
4480
C480
4480
5FE0
4000
4480
4840
5020
ENDCHAR
STARTCHAR u4FA0
ENCODING 20384
SWIDTH 1000 0
DWIDTH 12 0
BBX 12 12 0 -1
BITMAP
0000
2100
2FE0
4100
4920
C540
4100
5FE0
4100
4280
4440
5820
ENDCHAR
STARTCHAR u4FD8
ENCODING 20440
SWIDTH 1000 0
DWIDTH 12 0
BBX 12 12 0 -1
BITMAP
0000
20C0
2F00
4A20
4540
CFC0
4080
4100
5FE0
4100
4100
4700
ENDCHAR
STARTCHAR u4FDD
ENCODING 20445
SWIDTH 1000 0
DWIDTH 12 0
BBX 12 12 0 -1
BITMAP
0000
2FC0
2840
4840
4FC0
C100
4100
5FE0
4380
4540
5920
4100
ENDCHAR
STARTCHAR u501F
ENCODING 20511
SWIDTH 1000 0
DWIDTH 12 0
BBX 12 12 0 -1
BITMAP
0000
2480
2FC0
4480
4480
DFE0
4000
4FC0
4840
4FC0
4840
4FC0
ENDCHAR
STARTCHAR u503C
ENCODING 20540
SWIDTH 1000 0
DWIDTH 12 0
BBX 12 12 0 -1
BITMAP
0000
2100
2FE0
4100
4FC0
C840
4FC0
4840
4FC0
4840
4840
5FE0
ENDCHAR
STARTCHAR u5047
ENCODING 20551
SWIDTH 1000 0
DWIDTH 12 0
BBX 12 12 0 -1
BITMAP
0000
2EE0
2A20
4A20
4EE0
C800
4EE0
48A0
48A0
4E40
48A0
4920
ENDCHAR
STARTCHAR u505A
ENCODING 20570
SWIDTH 1000 0
DWIDTH 12 0
BBX 12 12 0 -1
BITMAP
0000
2900
2900
5DE0
4A40
C940
4940
5D40
5540
5480
5540
5E20
ENDCHAR
STARTCHAR u505C
ENCODING 20572
SWIDTH 1000 0
DWIDTH 12 0
BBX 12 12 0 -1
BITMAP
0000
2200
3FE0
4840
4FC0
C000
5FE0
5020
4FC0
4100
4100
4700
ENDCHAR
STARTCHAR u50CF
ENCODING 20687
SWIDTH 1000 0
DWIDTH 12 0
BBX 12 12 0 -1
BITMAP
0000
2780
2880
5FE0
4920
CFE0
4700
59A0
46C0
59A0
46A0
5980
ENDCHAR
STARTCHAR u5145
ENCODING 20805
SWIDTH 1000 0
DWIDTH 12 0
BBX 12 12 0 -1
BITMAP
0000
0400
FFE0
0800
1100
2080
7FC0
1140
1100
1100
2120
C1E0
ENDCHAR
STARTCHAR u5148
ENCODING 20808
SWIDTH 1000 0
DWIDTH 12 0
BBX 12 12 0 -1
BITMAP
0000
2400
2400
3FC0
4400
0400
FFE0
1100
1100
1120
2120
C1E0
ENDCHAR
STARTCHAR u5149
ENCODING 20809
SWIDTH 1000 0
DWIDTH 12 0
BBX 12 12 0 -1
BITMAP
0000
0400
4440
2480
1500
0400
FFE0
1100
1100
1120
2120
C1E0
ENDCHAR
STARTCHAR u514D
ENCODING 20813
SWIDTH 1000 0
DWIDTH 12 0
BBX 12 12 0 -1
BITMAP
0000
2000
3F00
4100
FFC0
4440
4440
7FC0
0A00
0A20
1220
E3E0
ENDCHAR
STARTCHAR u5165-ZH_CN
ENCODING 20837
SWIDTH 1000 0
DWIDTH 12 0
BBX 12 12 0 -1
BITMAP
0000
1000
0800
0400
0400
0A00
0A00
1100
1100
2080
4040
8020
ENDCHAR
STARTCHAR u5168-ZH_CN
ENCODING 20840
SWIDTH 1000 0
DWIDTH 12 0
BBX 12 12 0 -1
BITMAP
0000
0400
0A00
3180
C060
3F80
0400
0400
7FC0
0400
0400
FFE0
ENDCHAR
STARTCHAR u5173
ENCODING 20851
SWIDTH 1000 0
DWIDTH 12 0
BBX 12 12 0 -1
BITMAP
0000
2080
1100
7FC0
0400
0400
0400
FFE0
0A00
1100
2080
C060
ENDCHAR
STARTCHAR u5175
ENCODING 20853
SWIDTH 1000 0
DWIDTH 12 0
BBX 12 12 0 -1
BITMAP
0000
0180
3E00
2000
3FC0
2100
2100
2100
FFE0
0000
2080
C060
ENDCHAR
STARTCHAR u5176
ENCODING 20854
SWIDTH 1000 0
DWIDTH 12 0
BBX 12 12 0 -1
BITMAP
0000
2080
FFE0
2080
3F80
2080
3F80
2080
FFE0
0000
2080
C060
ENDCHAR
STARTCHAR u5177
ENCODING 20855
SWIDTH 1000 0
DWIDTH 12 0
BBX 12 12 0 -1
BITMAP
0000
3F80
2080
3F80
2080
3F80
2080
3F80
2080
FFE0
2080
C060
ENDCHAR
STARTCHAR u5185
ENCODING 20869
SWIDTH 1000 0
DWIDTH 12 0
BBX 12 12 0 -1
BITMAP
0000
0400
0400
FFE0
8420
8420
8A20
9120
A0A0
8020
8020
80E0
ENDCHAR
STARTCHAR u518D
ENCODING 20877
SWIDTH 1000 0
DWIDTH 12 0
BBX 12 12 0 -1
BITMAP
0000
FFE0
0400
7FC0
4440
7FC0
4440
4440
FFE0
4040
4040
41C0
ENDCHAR
STARTCHAR u519B
ENCODING 20891
SWIDTH 1000 0
DWIDTH 12 0
BBX 12 12 0 -1
BITMAP
0000
FFE0
8020
8820
7FC0
1000
2400
7FC0
0400
FFE0
0400
0400
ENDCHAR
STARTCHAR u519C
ENCODING 20892
SWIDTH 1000 0
DWIDTH 12 0
BBX 12 12 0 -1
BITMAP
0000
0400
FFE0
8420
8820
1400
2440
6280
A100
2480
2840
3020
ENDCHAR
STARTCHAR u51B2
ENCODING 20914
SWIDTH 1000 0
DWIDTH 12 0
BBX 12 12 0 -1
BITMAP
0000
8100
4100
5FE0
1120
1120
1120
5FE0
4100
4100
8100
8100
ENDCHAR
STARTCHAR u51B3
ENCODING 20915
SWIDTH 1000 0
DWIDTH 12 0
BBX 12 12 0 -1
BITMAP
0000
8200
4200
4FC0
0240
0240
0240
5FE0
4200
4500
8880
B060
ENDCHAR
STARTCHAR u51C6
ENCODING 20934
SWIDTH 1000 0
DWIDTH 12 0
BBX 12 12 0 -1
BITMAP
0000
8500
4480
4FE0
1880
0FE0
0880
4880
4FE0
4880
8880
8FE0
ENDCHAR
STARTCHAR u51CF
ENCODING 20943
SWIDTH 1000 0
DWIDTH 12 0
BBX 12 12 0 -1
BITMAP
0000
80A0
40A0
4FE0
0880
0EA0
08A0
4EA0
4A40
4E40
88A0
9320
ENDCHAR
STARTCHAR u51DD
ENCODING 20957
SWIDTH 1000 0
DWIDTH 12 0
BBX 12 12 0 -1
BITMAP
0000
93E0
5C20
5140
1C80
03E0
1CA0
2880
5EE0
4A80
9580
A460
ENDCHAR
STARTCHAR u51E0
ENCODING 20960
SWIDTH 1000 0
DWIDTH 12 0
BBX 12 12 0 -1
BITMAP
0000
3F00
2100
2100
2100
2100
2100
2100
2100
4120
4120
81E0
ENDCHAR
STARTCHAR u51E4
ENCODING 20964
SWIDTH 1000 0
DWIDTH 12 0
BBX 12 12 0 -1
BITMAP
0000
7FC0
4040
5F40
4140
5140
4A40
4A40
4440
4A40
5160
8020
ENDCHAR
STARTCHAR u51F0
ENCODING 20976
SWIDTH 1000 0
DWIDTH 12 0
BBX 12 12 0 -1
BITMAP
0000
7FC0
4440
5F40
5140
5F40
5140
5F40
4440
5F40
4460
BFA0
ENDCHAR
STARTCHAR u51FA
ENCODING 20986
SWIDTH 1000 0
DWIDTH 12 0
BBX 12 12 0 -1
BITMAP
0000
0400
4440
4440
4440
7FC0
0400
0400
8420
8420
8420
FFE0
ENDCHAR
STARTCHAR u51FB
ENCODING 20987
SWIDTH 1000 0
DWIDTH 12 0
BBX 12 12 0 -1
BITMAP
0000
0400
0400
7FC0
0400
0400
FFE0
0400
4440
4440
4440
7FC0
ENDCHAR
STARTCHAR u5206
ENCODING 20998
SWIDTH 1000 0
DWIDTH 12 0
BBX 12 12 0 -1
BITMAP
0000
1100
1100
2080
2080
4040
BFA0
0880
0880
1080
2080
C300
ENDCHAR
STARTCHAR u5219
ENCODING 21017
SWIDTH 1000 0
DWIDTH 12 0
BBX 12 12 0 -1
BITMAP
0000
FE20
82A0
92A0
92A0
92A0
92A0
92A0
92A0
2820
4420
82E0
ENDCHAR
STARTCHAR u521A
ENCODING 21018
SWIDTH 1000 0
DWIDTH 12 0
BBX 12 12 0 -1
BITMAP
0000
FE20
82A0
82A0
C6A0
AAA0
92A0
AAA0
C6A0
8220
8220
86E0
ENDCHAR
STARTCHAR u521D
ENCODING 21021
SWIDTH 1000 0
DWIDTH 12 0
BBX 12 12 0 -1
BITMAP
0000
4FE0
2220
F220
1220
2220
2A20
7220
AA20
2420
2420
28C0
ENDCHAR
STARTCHAR u5220
ENCODING 21024
SWIDTH 1000 0
DWIDTH 12 0
BBX 12 12 0 -1
BITMAP
0000
EE20
AAA0
AAA0
AAA0
AAA0
FFA0
AAA0
AAA0
AA20
AA20
76E0
ENDCHAR
STARTCHAR u5229
ENCODING 21033
SWIDTH 1000 0
DWIDTH 12 0
BBX 12 12 0 -1
BITMAP
0000
0C20
7020
1120
1120
FD20
1120
3120
3920
5420
9020
10E0
ENDCHAR
STARTCHAR u5230
ENCODING 21040
SWIDTH 1000 0
DWIDTH 12 0
BBX 12 12 0 -1
BITMAP
0000
FE20
10A0
20A0
44A0
FAA0
10A0
10A0
FEA0
1020
1E20
E0E0
ENDCHAR
STARTCHAR u5236
ENCODING 21046
SWIDTH 1000 0
DWIDTH 12 0
BBX 12 12 0 -1
BITMAP
0000
5020
7EA0
90A0
10A0
FEA0
10A0
FEA0
92A0
9220
9620
10E0
ENDCHAR
STARTCHAR u523A
ENCODING 21050
SWIDTH 1000 0
DWIDTH 12 0
BBX 12 12 0 -1
BITMAP
0000
1020
FEA0
10A0
FEA0
92A0
92A0
96A0
38A0
5420
9220
10E0
ENDCHAR
STARTCHAR u523B
ENCODING 21051
SWIDTH 1000 0
DWIDTH 12 0
BBX 12 12 0 -1
BITMAP
0000
1020
FEA0
20A0
44A0
F8A0
10A0
22A0
C4A0
0820
3420
C2E0
ENDCHAR
STARTCHAR u524D
ENCODING 21069
SWIDTH 1000 0
DWIDTH 12 0
BBX 12 12 0 -1
BITMAP
0000
2080
1100
FFE0
0000
7D40
4540
7D40
4540
7D40
4440
4CC0
ENDCHAR
STARTCHAR u5251
ENCODING 21073
SWIDTH 1000 0
DWIDTH 12 0
BBX 12 12 0 -1
BITMAP
0000
1020
28A0
44A0
82A0
7CA0
02A0
A2A0
54A0
5420
0E20
F0E0
ENDCHAR
STARTCHAR u5269
ENCODING 21097
SWIDTH 1000 0
DWIDTH 12 0
BBX 12 12 0 -1
BITMAP
0000
0C20
70A0
10A0
FEA0
54A0
D6A0
54A0
D6A0
3820
5420
92E0
ENDCHAR
STARTCHAR u529B
ENCODING 21147
SWIDTH 1000 0
DWIDTH 12 0
BBX 12 12 0 -1
BITMAP
0000
0400
0400
7FE0
0420
0420
0420
0820
0820
1020
2020
C1C0
ENDCHAR
STARTCHAR u52A0
ENCODING 21152
SWIDTH 1000 0
DWIDTH 12 0
BBX 12 12 0 -1
BITMAP
0000
2000
21E0
FD20
2520
2520
2520
2520
2520
4520
4520
99E0
ENDCHAR
STARTCHAR u52A1
ENCODING 21153
SWIDTH 1000 0
DWIDTH 12 0
BBX 12 12 0 -1
BITMAP
0000
1000
1F80
2080
D100
0E00
F1E0
0800
7FC0
0840
1040
E180
ENDCHAR
STARTCHAR u52A8
ENCODING 21160
SWIDTH 1000 0
DWIDTH 12 0
BBX 12 12 0 -1
BITMAP
0000
0100
7900
07E0
0120
F920
2120
4120
4920
9A20
EA20
04C0
ENDCHAR
STARTCHAR u52B1
ENCODING 21169
SWIDTH 1000 0
DWIDTH 12 0
BBX 12 12 0 -1
BITMAP
0000
FD00
8100
FBE0
A120
A120
BD20
A520
A520
A520
A620
4CC0
ENDCHAR
STARTCHAR u52DF
ENCODING 21215
SWIDTH 1000 0
DWIDTH 12 0
BBX 12 12 0 -1
BITMAP
0000
1100
FFE0
1100
7FC0
4040
FFE0
2080
4440
BFA0
0880
7300
ENDCHAR
STARTCHAR u52E4
ENCODING 21220
SWIDTH 1000 0
DWIDTH 12 0
BBX 12 12 0 -1
BITMAP
0000
4900
FD00
4BE0
FD20
9520
FD20
1120
FD20
1120
1D20
E260
ENDCHAR
STARTCHAR u52FE
ENCODING 21246
SWIDTH 1000 0
DWIDTH 12 0
BBX 12 12 0 -1
BITMAP
0000
2000
3FE0
2020
4820
8820
1020
1120
2120
7EA0
0020
00C0
ENDCHAR
STARTCHAR u5316
ENCODING 21270
SWIDTH 1000 0
DWIDTH 12 0
BBX 12 12 0 -1
BITMAP
0000
2200
2200
4240
4280
C300
4600
5A00
4200
4220
4220
41E0
ENDCHAR
STARTCHAR u533A
ENCODING 21306
SWIDTH 1000 0
DWIDTH 12 0
BBX 12 12 0 -1
BITMAP
0000
FFE0
8000
9040
8880
8500
8200
8500
8880
9040
8000
FFE0
ENDCHAR
STARTCHAR u5347
ENCODING 21319
SWIDTH 1000 0
DWIDTH 12 0
BBX 12 12 0 -1
BITMAP
0000
0C80
7080
1080
1080
1080
FFE0
1080
1080
1080
2080
C080
ENDCHAR
STARTCHAR u534A
ENCODING 21322
SWIDTH 1000 0
DWIDTH 12 0
BBX 12 12 0 -1
BITMAP
0000
0400
4440
2480
0400
7FC0
0400
0400
FFE0
0400
0400
0400
ENDCHAR
STARTCHAR u5355
ENCODING 21333
SWIDTH 1000 0
DWIDTH 12 0
BBX 12 12 0 -1
BITMAP
0000
2080
1100
7FC0
4440
7FC0
4440
7FC0
0400
FFE0
0400
0400
ENDCHAR
STARTCHAR u5360
ENCODING 21344
SWIDTH 1000 0
DWIDTH 12 0
BBX 12 12 0 -1
BITMAP
0000
0400
0400
07E0
0400
0400
0400
7FC0
4040
4040
4040
7FC0
ENDCHAR
STARTCHAR u5361
ENCODING 21345
SWIDTH 1000 0
DWIDTH 12 0
BBX 12 12 0 -1
BITMAP
0000
0400
0400
07C0
0400
0400
FFE0
0400
0500
0480
0440
0400
ENDCHAR
STARTCHAR u536B
ENCODING 21355
SWIDTH 1000 0
DWIDTH 12 0
BBX 12 12 0 -1
BITMAP
0000
7FC0
0840
0840
0840
0840
0840
09C0
0800
0800
0800
FFE0
ENDCHAR
STARTCHAR u5371
ENCODING 21361
SWIDTH 1000 0
DWIDTH 12 0
BBX 12 12 0 -1
BITMAP
0000
1000
1F00
2100
7FE0
A000
2F80
2880
2980
4800
4820
87E0
ENDCHAR
STARTCHAR u5373-ZH_HK
ENCODING 21363
SWIDTH 1000 0
DWIDTH 12 0
BBX 12 14 0 -2
BITMAP
0000
0000
FBE0
8A20
8A20
FA20
8A20
8A20
FA20
9220
9220
AAE0
CA00
0000
ENDCHAR
STARTCHAR u5377
ENCODING 21367
SWIDTH 1000 0
DWIDTH 12 0
BBX 12 12 0 -1
BITMAP
0000
2480
1500
7FC0
0800
FFE0
1100
3F80
E160
2700
2040
1FC0
ENDCHAR
STARTCHAR u5378
ENCODING 21368
SWIDTH 1000 0
DWIDTH 12 0
BBX 12 12 0 -1
BITMAP
0000
4000
7DE0
9120
1120
FD20
1120
5D20
5120
5160
5D00
E100
ENDCHAR
STARTCHAR u539F
ENCODING 21407
SWIDTH 1000 0
DWIDTH 12 0
BBX 12 12 0 -1
BITMAP
0000
7FE0
4200
5FC0
5040
5FC0
5040
5FC0
4200
5240
5220
A620
ENDCHAR
STARTCHAR u53BB
ENCODING 21435
SWIDTH 1000 0
DWIDTH 12 0
BBX 12 12 0 -1
BITMAP
0000
0400
0400
7FC0
0400
0400
FFE0
0800
1080
1080
2340
7C40
ENDCHAR
STARTCHAR u53CA
ENCODING 21450
SWIDTH 1000 0
DWIDTH 12 0
BBX 12 12 0 -1
BITMAP
0000
FF80
2080
2100
2200
23C0
3040
2880
2500
4200
4D80
B060
ENDCHAR
STARTCHAR u53CB
ENCODING 21451
SWIDTH 1000 0
DWIDTH 12 0
BBX 12 12 0 -1
BITMAP
0000
0800
0800
FFE0
1000
1000
1FC0
2840
2480
4300
4C80
B060
ENDCHAR
STARTCHAR u53CD-ZH_CN
ENCODING 21453
SWIDTH 1000 0
DWIDTH 12 0
BBX 12 12 0 -1
BITMAP
0000
03C0
7C00
4000
4000
7FC0
5040
4880
4500
4200
4D80
B060
ENDCHAR
STARTCHAR u53D1
ENCODING 21457
SWIDTH 1000 0
DWIDTH 12 0
BBX 12 12 0 -1
BITMAP
0000
4900
4880
8800
FFE0
1000
1F80
2880
2500
4200
4D80
B060
ENDCHAR
STARTCHAR u53D6-ZH_CN
ENCODING 21462
SWIDTH 1000 0
DWIDTH 12 0
BBX 12 12 0 -1
BITMAP
0000
FC00
4BE0
7A20
4A20
4A20
7A20
4940
4940
5C80
E940
0A20
ENDCHAR
STARTCHAR u53D7
ENCODING 21463
SWIDTH 1000 0
DWIDTH 12 0
BBX 12 12 0 -1
BITMAP
0000
01C0
7E00
2440
1280
FFE0
8020
BFA0
2080
1100
0E00
F1E0
ENDCHAR
STARTCHAR u53D8
ENCODING 21464
SWIDTH 1000 0
DWIDTH 12 0
BBX 12 12 0 -1
BITMAP
0000
0400
FFE0
1100
5140
9120
1100
7FC0
2080
1100
0E00
F1E0
ENDCHAR
STARTCHAR u53E3
ENCODING 21475
SWIDTH 1000 0
DWIDTH 12 0
BBX 12 12 0 -1
BITMAP
0000
0000
7FC0
4040
4040
4040
4040
4040
4040
4040
7FC0
0000
ENDCHAR
STARTCHAR u53E6
ENCODING 21478
SWIDTH 1000 0
DWIDTH 12 0
BBX 12 12 0 -1
BITMAP
0000
7FC0
4040
4040
7FC0
0800
FFE0
0820
0820
1020
2020
C1C0
ENDCHAR
STARTCHAR u53EA
ENCODING 21482
SWIDTH 1000 0
DWIDTH 12 0
BBX 12 12 0 -1
BITMAP
0000
7FC0
4040
4040
4040
4040
7FC0
0000
0000
2080
4040
8020
ENDCHAR
STARTCHAR u53EC
ENCODING 21484
SWIDTH 1000 0
DWIDTH 12 0
BBX 12 12 0 -1
BITMAP
0000
FFE0
0420
0820
3020
C1C0
0000
7FC0
4040
4040
4040
7FC0
ENDCHAR
STARTCHAR u53EF
ENCODING 21487
SWIDTH 1000 0
DWIDTH 12 0
BBX 12 12 0 -1
BITMAP
0000
FFE0
0040
0040
3E40
2240
2240
2240
3E40
0040
0040
01C0
ENDCHAR
STARTCHAR u53F3
ENCODING 21491
SWIDTH 1000 0
DWIDTH 12 0
BBX 12 12 0 -1
BITMAP
0000
0800
0800
FFE0
1000
1000
2000
3FC0
6040
A040
2040
3FC0
ENDCHAR
STARTCHAR u53F8
ENCODING 21496
SWIDTH 1000 0
DWIDTH 12 0
BBX 12 12 0 -1
BITMAP
0000
FFE0
0020
FFA0
0020
7F20
4120
4120
4120
7F20
0020
00E0
ENDCHAR
STARTCHAR u5404
ENCODING 21508
SWIDTH 1000 0
DWIDTH 12 0
BBX 12 12 0 -1
BITMAP
0000
1000
1F80
2080
5100
0E00
3180
C060
3F80
2080
2080
3F80
ENDCHAR
STARTCHAR u5408
ENCODING 21512
SWIDTH 1000 0
DWIDTH 12 0
BBX 12 12 0 -1
BITMAP
0000
0400
0A00
3180
C060
3F80
0000
7FC0
4040
4040
4040
7FC0
ENDCHAR
STARTCHAR u540C
ENCODING 21516
SWIDTH 1000 0
DWIDTH 12 0
BBX 12 12 0 -1
BITMAP
0000
FFE0
8020
BFA0
8020
9F20
9120
9120
9120
9F20
8020
80E0
ENDCHAR
STARTCHAR u540D
ENCODING 21517
SWIDTH 1000 0
DWIDTH 12 0
BBX 12 12 0 -1
BITMAP
0000
0800
0FC0
1040
6880
0500
0200
1FE0
F020
1020
1020
1FE0
ENDCHAR
STARTCHAR u540E
ENCODING 21518
SWIDTH 1000 0
DWIDTH 12 0
BBX 12 12 0 -1
BITMAP
0000
03C0
7C00
4000
4000
7FE0
4000
5FC0
5040
5040
5040
9FC0
ENDCHAR
STARTCHAR u5411
ENCODING 21521
SWIDTH 1000 0
DWIDTH 12 0
BBX 12 12 0 -1
BITMAP
0000
0800
1000
FFE0
8020
9F20
9120
9120
9120
9F20
8020
80E0
ENDCHAR
STARTCHAR u541F-ZH_CN
ENCODING 21535
SWIDTH 1000 0
DWIDTH 12 0
BBX 12 12 0 -1
BITMAP
0000
0100
E280
A440
B820
A100
A080
AFE0
A020
E040
0080
0100
ENDCHAR
STARTCHAR u5426
ENCODING 21542
SWIDTH 1000 0
DWIDTH 12 0
BBX 12 12 0 -1
BITMAP
0000
FFE0
0200
0C00
3580
C460
0400
0000
7FC0
4040
4040
7FC0
ENDCHAR
STARTCHAR u544A
ENCODING 21578
SWIDTH 1000 0
DWIDTH 12 0
BBX 12 12 0 -1
BITMAP
0000
4400
7FC0
8400
0400
FFE0
0000
7FC0
4040
4040
4040
7FC0
ENDCHAR
STARTCHAR u5458
ENCODING 21592
SWIDTH 1000 0
DWIDTH 12 0
BBX 12 12 0 -1
BITMAP
0000
3F80
2080
3F80
0000
7FC0
4040
4440
4440
0A00
3180
C060
ENDCHAR
STARTCHAR u5468
ENCODING 21608
SWIDTH 1000 0
DWIDTH 12 0
BBX 12 12 0 -1
BITMAP
0000
3FE0
2220
2FA0
2220
2FA0
2020
2FA0
28A0
4FA0
4020
80E0
ENDCHAR
STARTCHAR u547D
ENCODING 21629
SWIDTH 1000 0
DWIDTH 12 0
BBX 12 12 0 -1
BITMAP
0000
0400
0A00
3180
DF60
0000
7BC0
4A40
4A40
4A40
7AC0
0200
ENDCHAR
STARTCHAR u548C
ENCODING 21644
SWIDTH 1000 0
DWIDTH 12 0
BBX 12 12 0 -1
BITMAP
0000
0C00
71E0
1120
1120
FD20
1120
3120
5920
9520
11E0
1000
ENDCHAR
STARTCHAR u54C1
ENCODING 21697
SWIDTH 1000 0
DWIDTH 12 0
BBX 12 12 0 -1
BITMAP
0000
3F80
2080
2080
2080
3F80
0000
FBE0
8A20
8A20
8A20
FBE0
ENDCHAR
STARTCHAR u54CD
ENCODING 21709
SWIDTH 1000 0
DWIDTH 12 0
BBX 12 12 0 -1
BITMAP
0000
0100
E200
AFE0
A820
ABA0
AAA0
AAA0
AAA0
EBA0
0820
0860
ENDCHAR
STARTCHAR u54EA
ENCODING 21738
SWIDTH 1000 0
DWIDTH 12 0
BBX 12 12 0 -1
BITMAP
0000
1EE0
EAA0
AAA0
BEA0
AAC0
AAA0
BEA0
AAA0
EAE0
1280
2680
ENDCHAR
STARTCHAR u5668
ENCODING 22120
SWIDTH 1000 0
DWIDTH 12 0
BBX 12 12 0 -1
BITMAP
0000
7BC0
4A40
4A40
7BC0
0500
FFE0
2080
FBE0
4A40
4A40
7BC0
ENDCHAR
STARTCHAR u56DE
ENCODING 22238
SWIDTH 1000 0
DWIDTH 12 0
BBX 12 12 0 -1
BITMAP
0000
FFE0
8020
8020
9F20
9120
9120
9120
9F20
8020
8020
FFE0
ENDCHAR
STARTCHAR u56E2
ENCODING 22242
SWIDTH 1000 0
DWIDTH 12 0
BBX 12 12 0 -1
BITMAP
0000
FFE0
8020
8220
BFA0
8620
8A20
9220
A220
8620
8020
FFE0
ENDCHAR
STARTCHAR u56F0
ENCODING 22256
SWIDTH 1000 0
DWIDTH 12 0
BBX 12 12 0 -1
BITMAP
0000
FFE0
8020
8420
8420
BFA0
8E20
9520
A4A0
8420
8020
FFE0
ENDCHAR
STARTCHAR u56F4
ENCODING 22260
SWIDTH 1000 0
DWIDTH 12 0
BBX 12 12 0 -1
BITMAP
0000
FFE0
8420
BFA0
8420
9F20
8420
BFA0
84A0
85A0
8420
FFE0
ENDCHAR
STARTCHAR u56FE
ENCODING 22270
SWIDTH 1000 0
DWIDTH 12 0
BBX 12 12 0 -1
BITMAP
0000
FFE0
8820
8F20
B120
8E20
F1E0
8C20
8320
9820
8620
FFE0
ENDCHAR
STARTCHAR u5723
ENCODING 22307
SWIDTH 1000 0
DWIDTH 12 0
BBX 12 12 0 -1
BITMAP
0000
7FC0
2080
1100
0E00
3180
C460
0400
7FC0
0400
0400
FFE0
ENDCHAR
STARTCHAR u5728
ENCODING 22312
SWIDTH 1000 0
DWIDTH 12 0
BBX 12 12 0 -1
BITMAP
0000
0800
0800
FFE0
1000
1100
2100
6FE0
A100
2100
2100
2FE0
ENDCHAR
STARTCHAR u5730
ENCODING 22320
SWIDTH 1000 0
DWIDTH 12 0
BBX 12 12 0 -1
BITMAP
0000
4100
4900
4960
EBA0
5D20
4920
4960
6900
C820
0820
07E0
ENDCHAR
STARTCHAR u573A
ENCODING 22330
SWIDTH 1000 0
DWIDTH 12 0
BBX 12 12 0 -1
BITMAP
0000
4FC0
4080
4100
E200
4FE0
42A0
44A0
6920
C120
0220
04C0
ENDCHAR
STARTCHAR u574F
ENCODING 22351
SWIDTH 1000 0
DWIDTH 12 0
BBX 12 12 0 -1
BITMAP
0000
2FE0
2080
2100
F100
2340
2520
2920
3100
C100
0100
0100
ENDCHAR
STARTCHAR u578B
ENCODING 22411
SWIDTH 1000 0
DWIDTH 12 0
BBX 12 12 0 -1
BITMAP
0000
FE20
24A0
24A0
FEA0
24A0
4420
8060
0400
7FC0
0400
FFE0
ENDCHAR
STARTCHAR u5792
ENCODING 22418
SWIDTH 1000 0
DWIDTH 12 0
BBX 12 12 0 -1
BITMAP
0000
0800
1100
2080
7F40
2080
4920
FBE0
0400
7FC0
0400
FFE0
ENDCHAR
STARTCHAR u57DF
ENCODING 22495
SWIDTH 1000 0
DWIDTH 12 0
BBX 12 12 0 -1
BITMAP
0000
40A0
40A0
5FE0
E080
4EA0
4AA0
4AA0
6E40
C040
06A0
1920
ENDCHAR
STARTCHAR u57FA
ENCODING 22522
SWIDTH 1000 0
DWIDTH 12 0
BBX 12 12 0 -1
BITMAP
0000
2080
FFE0
2080
3F80
2080
FFE0
2080
4440
BFA0
0400
7FC0
ENDCHAR
STARTCHAR u5821
ENCODING 22561
SWIDTH 1000 0
DWIDTH 12 0
BBX 12 12 0 -1
BITMAP
0000
2FC0
2840
4FC0
C100
5FE0
4540
5920
0400
7FC0
0400
FFE0
ENDCHAR
STARTCHAR u589E
ENCODING 22686
SWIDTH 1000 0
DWIDTH 12 0
BBX 12 12 0 -1
BITMAP
0000
4440
5FE0
5120
F560
5FE0
4000
4FC0
6840
CFC0
0840
0FC0
ENDCHAR
STARTCHAR u58C1
ENCODING 22721
SWIDTH 1000 0
DWIDTH 12 0
BBX 12 12 0 -1
BITMAP
0000
7880
4BE0
7940
47E0
7880
ABE0
3880
0400
7FC0
0400
FFE0
ENDCHAR
STARTCHAR u58EB
ENCODING 22763
SWIDTH 1000 0
DWIDTH 12 0
BBX 12 12 0 -1
BITMAP
0000
0400
0400
0400
0400
FFE0
0400
0400
0400
0400
0400
7FC0
ENDCHAR
STARTCHAR u5904
ENCODING 22788
SWIDTH 1000 0
DWIDTH 12 0
BBX 12 12 0 -1
BITMAP
0000
2080
2080
3C80
4480
44C0
A4A0
2880
2880
1080
2C00
C3E0
ENDCHAR
STARTCHAR u5907
ENCODING 22791
SWIDTH 1000 0
DWIDTH 12 0
BBX 12 12 0 -1
BITMAP
0000
1000
3F80
D100
0E00
3180
C060
7FC0
4440
7FC0
4440
7FC0
ENDCHAR
STARTCHAR u590D
ENCODING 22797
SWIDTH 1000 0
DWIDTH 12 0
BBX 12 12 0 -1
BITMAP
0000
4000
7FE0
A040
3FC0
2040
3FC0
0800
1FC0
7080
0F00
F0E0
ENDCHAR
STARTCHAR u5916
ENCODING 22806
SWIDTH 1000 0
DWIDTH 12 0
BBX 12 12 0 -1
BITMAP
0000
2100
2100
3900
4900
4980
A940
1120
1100
2100
4100
8100
ENDCHAR
STARTCHAR u591A
ENCODING 22810
SWIDTH 1000 0
DWIDTH 12 0
BBX 12 12 0 -1
BITMAP
0000
0400
0F80
7080
0900
0680
19E0
E220
1C20
0240
0180
3E00
ENDCHAR
STARTCHAR u591F
ENCODING 22815
SWIDTH 1000 0
DWIDTH 12 0
BBX 12 12 0 -1
BITMAP
0000
2100
3DE0
4620
8540
7480
5700
55E0
5620
7540
0480
1B00
ENDCHAR
STARTCHAR u5927
ENCODING 22823
SWIDTH 1000 0
DWIDTH 12 0
BBX 12 12 0 -1
BITMAP
0000
0400
0400
0400
FFE0
0400
0A00
0A00
1100
1100
2080
C060
ENDCHAR
STARTCHAR u5931
ENCODING 22833
SWIDTH 1000 0
DWIDTH 12 0
BBX 12 12 0 -1
BITMAP
0000
2400
2400
3FC0
4400
8400
0400
FFE0
0A00
1100
2080
C060
ENDCHAR
STARTCHAR u5934
ENCODING 22836
SWIDTH 1000 0
DWIDTH 12 0
BBX 12 12 0 -1
BITMAP
0000
2200
1200
4200
2200
0200
FFE0
0400
0500
0880
3040
C020
ENDCHAR
STARTCHAR u5956-ZH_HK
ENCODING 22870
SWIDTH 1000 0
DWIDTH 12 0
BBX 12 14 0 -2
BITMAP
0000
0000
1200
93E0
5220
1520
30C0
D700
0400
FFE0
0A00
3180
C060
0000
ENDCHAR
STARTCHAR u5973
ENCODING 22899
SWIDTH 1000 0
DWIDTH 12 0
BBX 12 12 0 -1
BITMAP
0000
0800
0800
0800
FFE0
1080
1080
2100
1900
0600
1980
E060
ENDCHAR
STARTCHAR u597D
ENCODING 22909
SWIDTH 1000 0
DWIDTH 12 0
BBX 12 12 0 -1
BITMAP
0000
27C0
2040
F080
5100
5100
5FE0
9100
5100
2100
5100
8700
ENDCHAR
STARTCHAR u59CB
ENCODING 22987
SWIDTH 1000 0
DWIDTH 12 0
BBX 12 12 0 -1
BITMAP
0000
2100
2100
F240
5440
5FA0
5000
97E0
5420
2420
5420
87E0
ENDCHAR
STARTCHAR u5A01
ENCODING 23041
SWIDTH 1000 0
DWIDTH 12 0
BBX 12 12 0 -1
BITMAP
0000
0140
0120
7FE0
4100
7F20
4920
7D40
5480
54A0
4960
B620
ENDCHAR
STARTCHAR u5B50
ENCODING 23376
SWIDTH 1000 0
DWIDTH 12 0
BBX 12 12 0 -1
BITMAP
0000
7F80
0080
0100
0200
0400
FFE0
0400
0400
0400
0400
1C00
ENDCHAR
STARTCHAR u5B58
ENCODING 23384
SWIDTH 1000 0
DWIDTH 12 0
BBX 12 12 0 -1
BITMAP
0000
0800
FFE0
1000
27C0
2080
6100
A100
2FE0
2100
2100
2300
ENDCHAR
STARTCHAR u5B83
ENCODING 23427
SWIDTH 1000 0
DWIDTH 12 0
BBX 12 12 0 -1
BITMAP
0000
0400
FFE0
8020
A020
2080
2300
3C00
2000
2020
2020
1FE0
ENDCHAR
STARTCHAR u5B89
ENCODING 23433
SWIDTH 1000 0
DWIDTH 12 0
BBX 12 12 0 -1
BITMAP
0000
0400
FFE0
8020
0800
0800
FFE0
1080
2080
1100
0E00
F1E0
ENDCHAR
STARTCHAR u5B8C
ENCODING 23436
SWIDTH 1000 0
DWIDTH 12 0
BBX 12 12 0 -1
BITMAP
0000
0400
FFE0
8020
BFA0
0000
0000
FFE0
1100
1100
2120
C1E0
ENDCHAR
STARTCHAR u5B98
ENCODING 23448
SWIDTH 1000 0
DWIDTH 12 0
BBX 12 12 0 -1
BITMAP
0000
0400
FFE0
8020
BFA0
2080
3F80
2000
3FC0
2040
2040
3FC0
ENDCHAR
STARTCHAR u5B9D
ENCODING 23453
SWIDTH 1000 0
DWIDTH 12 0
BBX 12 12 0 -1
BITMAP
0000
0400
FFE0
8020
8020
7FC0
0400
0400
7FC0
0480
0440
FFE0
ENDCHAR
STARTCHAR u5BA2
ENCODING 23458
SWIDTH 1000 0
DWIDTH 12 0
BBX 12 12 0 -1
BITMAP
0000
0400
FFE0
8820
9F20
7100
0E00
3180
FFE0
2080
2080
3F80
ENDCHAR
STARTCHAR u5BB3
ENCODING 23475
SWIDTH 1000 0
DWIDTH 12 0
BBX 12 12 0 -1
BITMAP
0000
0400
FFE0
8420
BFA0
0400
7FC0
0400
FFE0
4040
4040
7FC0
ENDCHAR
STARTCHAR u5BDF
ENCODING 23519
SWIDTH 1000 0
DWIDTH 12 0
BBX 12 12 0 -1
BITMAP
0000
0400
FFE0
A020
3BC0
EA40
5180
EF60
0000
7FC0
2480
CC60
ENDCHAR
STARTCHAR u5BF9
ENCODING 23545
SWIDTH 1000 0
DWIDTH 12 0
BBX 12 12 0 -1
BITMAP
0000
0040
F040
17E0
9040
5040
5440
2240
2240
5040
5040
81C0
ENDCHAR
STARTCHAR u5C04
ENCODING 23556
SWIDTH 1000 0
DWIDTH 12 0
BBX 12 12 0 -1
BITMAP
0000
2040
7840
4BE0
7840
4840
7A40
4940
F940
2840
4840
99C0
ENDCHAR
STARTCHAR u5C06
ENCODING 23558
SWIDTH 1000 0
DWIDTH 12 0
BBX 12 12 0 -1
BITMAP
0000
21E0
2E20
A240
6180
2E00
2040
6FE0
A040
2440
2240
20C0
ENDCHAR
STARTCHAR u5C11-ZH_CN
ENCODING 23569
SWIDTH 1000 0
DWIDTH 12 0
BBX 12 12 0 -1
BITMAP
0000
0400
0400
2480
2440
4420
8420
0480
0100
0600
1800
E000
ENDCHAR
STARTCHAR u5C31
ENCODING 23601
SWIDTH 1000 0
DWIDTH 12 0
BBX 12 12 0 -1
BITMAP
0000
2140
F920
0100
FFE0
8900
8A80
FA80
2280
AAA0
AAA0
64E0
ENDCHAR
STARTCHAR u5C3D
ENCODING 23613
SWIDTH 1000 0
DWIDTH 12 0
BBX 12 12 0 -1
BITMAP
0000
3FC0
2040
2040
3FC0
2080
2080
4C40
8320
0000
1800
0700
ENDCHAR
STARTCHAR u5C40
ENCODING 23616
SWIDTH 1000 0
DWIDTH 12 0
BBX 12 12 0 -1
BITMAP
0000
7FC0
4040
7FC0
4000
7FE0
4020
5F20
5120
5120
5F20
80C0
ENDCHAR
STARTCHAR u5C4F
ENCODING 23631
SWIDTH 1000 0
DWIDTH 12 0
BBX 12 12 0 -1
BITMAP
0000
7FE0
4020
7FE0
4840
4480
5FE0
4480
4480
5FE0
4480
9880
ENDCHAR
STARTCHAR u5C55
ENCODING 23637
SWIDTH 1000 0
DWIDTH 12 0
BBX 12 12 0 -1
BITMAP
0000
7FE0
4020
7FE0
4880
7FE0
4880
7FE0
5100
50A0
5640
9820
ENDCHAR
STARTCHAR u5C5E
ENCODING 23646
SWIDTH 1000 0
DWIDTH 12 0
BBX 12 12 0 -1
BITMAP
0000
7FE0
4020
7FE0
4200
5FC0
5240
5FC0
4200
7FE0
A2A0
AF60
ENDCHAR
STARTCHAR u5DE8-ZH_CN
ENCODING 24040
SWIDTH 1000 0
DWIDTH 12 0
BBX 12 12 0 -1
BITMAP
0000
FFE0
8000
8000
FFC0
8040
8040
8040
FFC0
8000
8000
FFE0
ENDCHAR
STARTCHAR u5DF2
ENCODING 24050
SWIDTH 1000 0
DWIDTH 12 0
BBX 12 12 0 -1
BITMAP
0000
7FC0
0040
0040
4040
4040
7FC0
4000
4000
4020
4020
3FE0
ENDCHAR
STARTCHAR u5E08
ENCODING 24072
SWIDTH 1000 0
DWIDTH 12 0
BBX 12 12 0 -1
BITMAP
0000
2FE0
A100
A100
AFE0
A920
A920
A920
2920
2960
4100
8100
ENDCHAR
STARTCHAR u5E1C
ENCODING 24092
SWIDTH 1000 0
DWIDTH 12 0
BBX 12 12 0 -1
BITMAP
0000
23E0
2220
FA20
AA20
AA20
ABE0
A800
A800
BA40
2220
2420
ENDCHAR
STARTCHAR u5E26
ENCODING 24102
SWIDTH 1000 0
DWIDTH 12 0
BBX 12 12 0 -1
BITMAP
0000
2480
FFE0
2480
0000
FFE0
8420
7FC0
4440
4440
44C0
0400
ENDCHAR
STARTCHAR u5E38
ENCODING 24120
SWIDTH 1000 0
DWIDTH 12 0
BBX 12 12 0 -1
BITMAP
0000
2480
FFE0
8020
BFA0
2080
3F80
0400
7FC0
4440
44C0
0400
ENDCHAR
STARTCHAR u5E72
ENCODING 24178
SWIDTH 1000 0
DWIDTH 12 0
BBX 12 12 0 -1
BITMAP
0000
7FC0
0400
0400
0400
0400
FFE0
0400
0400
0400
0400
0400
ENDCHAR
STARTCHAR u5E76
ENCODING 24182
SWIDTH 1000 0
DWIDTH 12 0
BBX 12 12 0 -1
BITMAP
0000
2080
1100
FFE0
1100
1100
1100
FFE0
1100
1100
2100
C100
ENDCHAR
STARTCHAR u5E78
ENCODING 24184
SWIDTH 1000 0
DWIDTH 12 0
BBX 12 12 0 -1
BITMAP
0000
0400
7FC0
0400
FFE0
2080
1100
7FC0
0400
FFE0
0400
0400
ENDCHAR
STARTCHAR u5E93
ENCODING 24211
SWIDTH 1000 0
DWIDTH 12 0
BBX 12 12 0 -1
BITMAP
0000
0200
7FE0
4400
7FE0
4800
5200
5FC0
4200
7FE0
4200
8200
ENDCHAR
STARTCHAR u5E95
ENCODING 24213
SWIDTH 1000 0
DWIDTH 12 0
BBX 12 12 0 -1
BITMAP
0000
0200
7FE0
4040
5F80
5100
5100
5FE0
5100
5080
54A0
9A60
ENDCHAR
STARTCHAR u5EA6
ENCODING 24230
SWIDTH 1000 0
DWIDTH 12 0
BBX 12 12 0 -1
BITMAP
0000
0200
7FE0
4880
7FE0
4880
4F80
4000
5FC0
4880
4700
B8E0
ENDCHAR
STARTCHAR u5F00
ENCODING 24320
SWIDTH 1000 0
DWIDTH 12 0
BBX 12 12 0 -1
BITMAP
0000
FFE0
2080
2080
2080
2080
FFE0
2080
2080
4080
4080
8080
ENDCHAR
STARTCHAR u5F03
ENCODING 24323
SWIDTH 1000 0
DWIDTH 12 0
BBX 12 12 0 -1
BITMAP
0000
0400
FFE0
1000
2080
7F40
0000
1100
FFE0
1100
2100
C100
ENDCHAR
STARTCHAR u5F0F
ENCODING 24335
SWIDTH 1000 0
DWIDTH 12 0
BBX 12 12 0 -1
BITMAP
0000
0140
0120
FFE0
0100
0100
FD00
1100
1080
10A0
1C60
E020
ENDCHAR
STARTCHAR u5F13
ENCODING 24339
SWIDTH 1000 0
DWIDTH 12 0
BBX 12 12 0 -1
BITMAP
0000
7FC0
0040
0040
7FC0
4000
4000
7FE0
0020
0020
0020
03C0
ENDCHAR
STARTCHAR u5F15
ENCODING 24341
SWIDTH 1000 0
DWIDTH 12 0
BBX 12 12 0 -1
BITMAP
0000
FC40
0440
0440
FC40
8040
8040
FC40
0440
0440
0440
3840
ENDCHAR
STARTCHAR u5F29
ENCODING 24361
SWIDTH 1000 0
DWIDTH 12 0
BBX 12 12 0 -1
BITMAP
0000
23E0
FA20
49C0
3220
DFC0
0040
7FC0
4000
7FE0
0020
03C0
ENDCHAR
STARTCHAR u5F39
ENCODING 24377
SWIDTH 1000 0
DWIDTH 12 0
BBX 12 12 0 -1
BITMAP
0000
E440
2280
2FE0
E920
8FE0
8920
EFE0
2100
2FE0
2100
C100
ENDCHAR
STARTCHAR u5F3A
ENCODING 24378
SWIDTH 1000 0
DWIDTH 12 0
BBX 12 12 0 -1
BITMAP
0000
E7C0
2440
27C0
E100
8FE0
8920
E920
2FE0
2100
2140
CFA0
ENDCHAR
STARTCHAR u5F53
ENCODING 24403
SWIDTH 1000 0
DWIDTH 12 0
BBX 12 12 0 -1
BITMAP
0000
0400
4440
2480
0400
7FC0
0040
0040
7FC0
0040
0040
7FC0
ENDCHAR
STARTCHAR u5F62
ENCODING 24418
SWIDTH 1000 0
DWIDTH 12 0
BBX 12 12 0 -1
BITMAP
0000
FF20
2440
2480
2400
2420
FF40
2480
2400
4420
4440
8480
ENDCHAR
STARTCHAR u5F71
ENCODING 24433
SWIDTH 1000 0
DWIDTH 12 0
BBX 12 12 0 -1
BITMAP
0000
7C20
4440
7C80
4400
7C20
1040
FE80
4400
7C20
5440
B280
ENDCHAR
STARTCHAR u5F79
ENCODING 24441
SWIDTH 1000 0
DWIDTH 12 0
BBX 12 12 0 -1
BITMAP
0000
2780
4480
8480
2480
58E0
C000
4FC0
4840
4480
4300
5CE0
ENDCHAR
STARTCHAR u5F80
ENCODING 24448
SWIDTH 1000 0
DWIDTH 12 0
BBX 12 12 0 -1
BITMAP
0000
2200
4100
9FE0
2100
4100
C100
4FC0
4100
4100
4100
5FE0
ENDCHAR
STARTCHAR u5F84
ENCODING 24452
SWIDTH 1000 0
DWIDTH 12 0
BBX 12 12 0 -1
BITMAP
0000
2FC0
4040
8080
2100
4680
D860
47C0
4100
4100
4100
4FE0
ENDCHAR
STARTCHAR u5F85
ENCODING 24453
SWIDTH 1000 0
DWIDTH 12 0
BBX 12 12 0 -1
BITMAP
0000
2100
47C0
8100
2100
4FE0
C040
4FE0
4440
4240
4040
41C0
ENDCHAR
STARTCHAR u5F97
ENCODING 24471
SWIDTH 1000 0
DWIDTH 12 0
BBX 12 12 0 -1
BITMAP
0000
2FC0
4840
8FC0
2840
4FC0
C000
5FE0
4080
5FE0
4880
4580
ENDCHAR
STARTCHAR u5FD8
ENCODING 24536
SWIDTH 1000 0
DWIDTH 12 0
BBX 12 12 0 -1
BITMAP
0000
0400
FFE0
2000
2000
3FC0
0000
0400
5240
5220
90A0
0F80
ENDCHAR
STARTCHAR u6012
ENCODING 24594
SWIDTH 1000 0
DWIDTH 12 0
BBX 12 12 0 -1
BITMAP
0000
2000
FBE0
2A20
4940
3080
CB60
0000
5440
5220
90A0
0F80
ENDCHAR
STARTCHAR u6027
ENCODING 24615
SWIDTH 1000 0
DWIDTH 12 0
BBX 12 12 0 -1
BITMAP
0000
2480
2480
A7E0
B480
A880
A080
27E0
2080
2080
2080
2FE0
ENDCHAR
STARTCHAR u603B
ENCODING 24635
SWIDTH 1000 0
DWIDTH 12 0
BBX 12 12 0 -1
BITMAP
0000
2080
1100
7FC0
4040
4040
7FC0
0000
5440
5220
90A0
0F80
ENDCHAR
STARTCHAR u6062
ENCODING 24674
SWIDTH 1000 0
DWIDTH 12 0
BBX 12 12 0 -1
BITMAP
0000
2400
2FE0
A400
B480
A4A0
A5A0
26C0
2480
2480
2940
2620
ENDCHAR
STARTCHAR u6076
ENCODING 24694
SWIDTH 1000 0
DWIDTH 12 0
BBX 12 12 0 -1
BITMAP
0000
7FC0
0A00
4A40
2A80
0A00
FFE0
0000
5440
5220
90A0
0F80
ENDCHAR
STARTCHAR u60F3
ENCODING 24819
SWIDTH 1000 0
DWIDTH 12 0
BBX 12 12 0 -1
BITMAP
0000
23E0
FA20
23E0
7220
ABE0
2220
23E0
1400
5240
50A0
8FA0
ENDCHAR
STARTCHAR u620F
ENCODING 25103
SWIDTH 1000 0
DWIDTH 12 0
BBX 12 12 0 -1
BITMAP
0000
0280
F240
1200
93E0
5E00
5240
2280
2100
5120
52A0
8460
ENDCHAR
STARTCHAR u6210
ENCODING 25104
SWIDTH 1000 0
DWIDTH 12 0
BBX 12 12 0 -1
BITMAP
0000
0280
0240
7FE0
4200
7A40
4A40
4A80
4900
5920
42A0
8C60
ENDCHAR
STARTCHAR u6216
ENCODING 25110
SWIDTH 1000 0
DWIDTH 12 0
BBX 12 12 0 -1
BITMAP
0000
0280
0240
FFE0
0200
7A40
4A40
4A80
7900
0120
1AA0
E460
ENDCHAR
STARTCHAR u6218
ENCODING 25112
SWIDTH 1000 0
DWIDTH 12 0
BBX 12 12 0 -1
BITMAP
0000
2140
2120
3900
21E0
2700
2120
F940
8880
88A0
8960
FA20
ENDCHAR
STARTCHAR u622A
ENCODING 25130
SWIDTH 1000 0
DWIDTH 12 0
BBX 12 12 0 -1
BITMAP
0000
1140
7D20
1100
FFE0
2100
4920
FD40
4880
7CA0
4960
7E20
ENDCHAR
STARTCHAR u6240
ENCODING 25152
SWIDTH 1000 0
DWIDTH 12 0
BBX 12 12 0 -1
BITMAP
0000
1860
6380
4200
7A00
4BE0
4A40
7A40
4240
4240
4240
8440
ENDCHAR
STARTCHAR u624B
ENCODING 25163
SWIDTH 1000 0
DWIDTH 12 0
BBX 12 12 0 -1
BITMAP
0000
03C0
7C00
0400
0400
7FC0
0400
0400
FFE0
0400
0400
1C00
ENDCHAR
STARTCHAR u624D
ENCODING 25165
SWIDTH 1000 0
DWIDTH 12 0
BBX 12 12 0 -1
BITMAP
0000
0100
0100
FFE0
0100
0300
0500
0900
3100
C100
0100
0700
ENDCHAR
STARTCHAR u6253
ENCODING 25171
SWIDTH 1000 0
DWIDTH 12 0
BBX 12 12 0 -1
BITMAP
0000
27E0
2080
F080
2080
2080
3080
E080
2080
2080
2080
E380
ENDCHAR
STARTCHAR u6263
ENCODING 25187
SWIDTH 1000 0
DWIDTH 12 0
BBX 12 12 0 -1
BITMAP
0000
2000
27E0
F420
2420
2420
3420
E420
2420
2420
2420
E7E0
ENDCHAR
STARTCHAR u6273-ZH_CN
ENCODING 25203
SWIDTH 1000 0
DWIDTH 12 0
BBX 12 12 0 -1
BITMAP
0000
40E0
4F00
E800
4800
4FE0
6C20
CA20
4940
4880
4940
D620
ENDCHAR
STARTCHAR u627E
ENCODING 25214
SWIDTH 1000 0
DWIDTH 12 0
BBX 12 12 0 -1
BITMAP
0000
4280
4240
E200
43E0
5E00
6240
C280
4100
4120
46A0
D860
ENDCHAR
STARTCHAR u6280
ENCODING 25216
SWIDTH 1000 0
DWIDTH 12 0
BBX 12 12 0 -1
BITMAP
0000
4100
4100
EFE0
4100
4100
6FC0
C840
4840
4480
4300
DCE0
ENDCHAR
STARTCHAR u628A
ENCODING 25226
SWIDTH 1000 0
DWIDTH 12 0
BBX 12 12 0 -1
BITMAP
0000
4FE0
4920
E920
4920
4920
6FE0
C800
4800
4820
4820
C7E0
ENDCHAR
STARTCHAR u6295
ENCODING 25237
SWIDTH 1000 0
DWIDTH 12 0
BBX 12 12 0 -1
BITMAP
0000
4780
4480
E480
4480
58E0
6000
CFC0
4840
4480
4300
DCE0
ENDCHAR
STARTCHAR u62A2
ENCODING 25250
SWIDTH 1000 0
DWIDTH 12 0
BBX 12 12 0 -1
BITMAP
0000
4100
4280
E440
5820
47C0
6440
C440
45C0
4400
4420
C3E0
ENDCHAR
STARTCHAR u62A4
ENCODING 25252
SWIDTH 1000 0
DWIDTH 12 0
BBX 12 12 0 -1
BITMAP
0000
2100
2080
F7E0
2420
2420
37E0
E400
2400
2400
2400
E800
ENDCHAR
STARTCHAR u62A5
ENCODING 25253
SWIDTH 1000 0
DWIDTH 12 0
BBX 12 12 0 -1
BITMAP
0000
27E0
2420
F420
24E0
2400
37E0
E620
2540
2480
2540
E620
ENDCHAR
STARTCHAR u62BC
ENCODING 25276
SWIDTH 1000 0
DWIDTH 12 0
BBX 12 12 0 -1
BITMAP
0000
4FE0
4920
E920
4FE0
4920
6920
CFE0
4100
4100
4100
C100
ENDCHAR
STARTCHAR u62C9
ENCODING 25289
SWIDTH 1000 0
DWIDTH 12 0
BBX 12 12 0 -1
BITMAP
0000
4200
4100
EFE0
4000
4440
6440
C240
4240
4280
4080
CFE0
ENDCHAR
STARTCHAR u62D6-ZH_HK
ENCODING 25302
SWIDTH 1000 0
DWIDTH 12 0
BBX 12 14 0 -2
BITMAP
0000
0000
2400
27E0
F900
2960
25A0
2720
3D20
E560
2500
2420
63E0
0000
ENDCHAR
STARTCHAR u62DB
ENCODING 25307
SWIDTH 1000 0
DWIDTH 12 0
BBX 12 12 0 -1
BITMAP
0000
4FE0
4220
E220
4420
48E0
6000
CFE0
4820
4820
4820
CFE0
ENDCHAR
STARTCHAR u62E6
ENCODING 25318
SWIDTH 1000 0
DWIDTH 12 0
BBX 12 12 0 -1
BITMAP
0000
4440
4280
EFE0
4000
4000
6000
C7C0
4000
4000
4000
CFE0
ENDCHAR
STARTCHAR u62E9
ENCODING 25321
SWIDTH 1000 0
DWIDTH 12 0
BBX 12 12 0 -1
BITMAP
0000
4FE0
4820
E440
4380
4C60
6100
C7C0
4100
4FE0
4100
C100
ENDCHAR
STARTCHAR u62EF
ENCODING 25327
SWIDTH 1000 0
DWIDTH 12 0
BBX 12 12 0 -1
BITMAP
0000
4FC0
4080
E120
5DA0
4540
6540
C920
5120
4300
4000
DFE0
ENDCHAR
STARTCHAR u62FF
ENCODING 25343
SWIDTH 1000 0
DWIDTH 12 0
BBX 12 12 0 -1
BITMAP
0000
0E00
3180
DF60
0000
3F80
2080
7FC0
0400
FFE0
0400
1C00
ENDCHAR
STARTCHAR u6307
ENCODING 25351
SWIDTH 1000 0
DWIDTH 12 0
BBX 12 12 0 -1
BITMAP
0000
4820
48C0
EF00
4820
47E0
6000
CFE0
4820
4FE0
4820
CFE0
ENDCHAR
STARTCHAR u6309
ENCODING 25353
SWIDTH 1000 0
DWIDTH 12 0
BBX 12 12 0 -1
BITMAP
0000
4100
4FE0
E820
4100
4100
6FE0
C240
4440
4280
4180
CE60
ENDCHAR
STARTCHAR u6321
ENCODING 25377
SWIDTH 1000 0
DWIDTH 12 0
BBX 12 12 0 -1
BITMAP
0000
4100
4920
E540
4100
4FE0
6020
C020
4FE0
4020
4020
CFE0
ENDCHAR
STARTCHAR u6325
ENCODING 25381
SWIDTH 1000 0
DWIDTH 12 0
BBX 12 12 0 -1
BITMAP
0000
4FE0
4820
E200
4FE0
4400
6900
CFE0
4100
4FE0
4100
C100
ENDCHAR
STARTCHAR u635F
ENCODING 25439
SWIDTH 1000 0
DWIDTH 12 0
BBX 12 12 0 -1
BITMAP
0000
47C0
4440
E7C0
4000
4FE0
6820
C920
4920
4280
4440
C820
ENDCHAR
STARTCHAR u6362
ENCODING 25442
SWIDTH 1000 0
DWIDTH 12 0
BBX 12 12 0 -1
BITMAP
0000
4200
4380
E480
4FC0
4940
6940
C940
5FE0
4280
4440
D820
ENDCHAR
STARTCHAR u636E
ENCODING 25454
SWIDTH 1000 0
DWIDTH 12 0
BBX 12 12 0 -1
BITMAP
0000
4FE0
4820
E820
4FE0
4880
6FE0
C880
4BE0
4A20
4A20
D3E0
ENDCHAR
STARTCHAR u6377
ENCODING 25463
SWIDTH 1000 0
DWIDTH 12 0
BBX 12 12 0 -1
BITMAP
0000
4200
5FE0
E240
5FE0
4240
6FC0
C200
4BC0
4A00
5600
D1E0
ENDCHAR
STARTCHAR u63A5
ENCODING 25509
SWIDTH 1000 0
DWIDTH 12 0
BBX 12 12 0 -1
BITMAP
0000
4100
4FE0
E440
4280
4FE0
6100
CFE0
4240
4480
4380
CC60
ENDCHAR
STARTCHAR u63D0
ENCODING 25552
SWIDTH 1000 0
DWIDTH 12 0
BBX 12 12 0 -1
BITMAP
0000
4FC0
4840
EFC0
4840
4FC0
6000
DFE0
4500
45E0
4B00
D0E0
ENDCHAR
STARTCHAR u63F4
ENCODING 25588
SWIDTH 1000 0
DWIDTH 12 0
BBX 12 12 0 -1
BITMAP
0000
40E0
4F20
E540
4FE0
4200
6FE0
C400
47C0
4A40
5180
CE60
ENDCHAR
STARTCHAR u643A
ENCODING 25658
SWIDTH 1000 0
DWIDTH 12 0
BBX 12 12 0 -1
BITMAP
0000
4480
4FE0
F880
4FE0
4880
6FE0
C000
4FC0
4260
4420
D8C0
ENDCHAR
STARTCHAR u6447-ZH_HK
ENCODING 25671
SWIDTH 1000 0
DWIDTH 12 0
BBX 12 14 0 -2
BITMAP
0000
0000
4060
4F80
E920
4540
4800
4FE0
6100
CFE0
4100
4920
CFE0
0000
ENDCHAR
STARTCHAR u652F
ENCODING 25903
SWIDTH 1000 0
DWIDTH 12 0
BBX 12 12 0 -1
BITMAP
0000
0400
0400
FFE0
0400
0400
7FC0
2080
1100
0E00
3180
C060
ENDCHAR
STARTCHAR u6536
ENCODING 25910
SWIDTH 1000 0
DWIDTH 12 0
BBX 12 12 0 -1
BITMAP
0000
1200
9200
93E0
9440
9A40
9240
9280
B280
D100
1280
1460
ENDCHAR
STARTCHAR u653B
ENCODING 25915
SWIDTH 1000 0
DWIDTH 12 0
BBX 12 12 0 -1
BITMAP
0000
0200
F200
23E0
2440
2A40
2240
2280
3280
C100
0280
0C60
ENDCHAR
STARTCHAR u653E
ENCODING 25918
SWIDTH 1000 0
DWIDTH 12 0
BBX 12 12 0 -1
BITMAP
0000
4200
2200
FBE0
4440
4240
7A40
4A80
4A80
4900
4A80
9C60
ENDCHAR
STARTCHAR u6548
ENCODING 25928
SWIDTH 1000 0
DWIDTH 12 0
BBX 12 12 0 -1
BITMAP
0000
1100
FD00
01E0
4A40
8540
4940
4940
2940
1080
2940
C620
ENDCHAR
STARTCHAR u654C
ENCODING 25932
SWIDTH 1000 0
DWIDTH 12 0
BBX 12 12 0 -1
BITMAP
0000
1A00
E200
23E0
2440
FA40
2240
2280
FA80
8900
8A80
FC60
ENDCHAR
STARTCHAR u6551
ENCODING 25937
SWIDTH 1000 0
DWIDTH 12 0
BBX 12 12 0 -1
BITMAP
0000
1900
1500
FDE0
1240
9540
5940
1140
3940
5480
9140
3620
ENDCHAR
STARTCHAR u6559
ENCODING 25945
SWIDTH 1000 0
DWIDTH 12 0
BBX 12 12 0 -1
BITMAP
0000
2100
F500
29E0
FE40
2240
7D40
8940
1D40
F080
1140
3620
ENDCHAR
STARTCHAR u6563
ENCODING 25955
SWIDTH 1000 0
DWIDTH 12 0
BBX 12 12 0 -1
BITMAP
0000
5100
F900
51E0
FA40
0540
F940
8940
F940
8880
F940
8A20
ENDCHAR
STARTCHAR u6570
ENCODING 25968
SWIDTH 1000 0
DWIDTH 12 0
BBX 12 12 0 -1
BITMAP
0000
9500
5900
FDE0
3240
5940
9540
2140
FD40
2480
3940
C620
ENDCHAR
STARTCHAR u6574
ENCODING 25972
SWIDTH 1000 0
DWIDTH 12 0
BBX 12 12 0 -1
BITMAP
0000
1100
FFE0
5540
7D40
3880
5540
FFE0
0400
27C0
2400
FFE0
ENDCHAR
STARTCHAR u6587
ENCODING 25991
SWIDTH 1000 0
DWIDTH 12 0
BBX 12 12 0 -1
BITMAP
0000
0800
0400
FFE0
2080
2080
1100
1100
0A00
0400
1B00
E0E0
ENDCHAR
STARTCHAR u6597
ENCODING 26007
SWIDTH 1000 0
DWIDTH 12 0
BBX 12 12 0 -1
BITMAP
0000
1100
0900
0500
4100
2100
1100
01E0
0F00
F100
0100
0100
ENDCHAR
STARTCHAR u65A7
ENCODING 26023
SWIDTH 1000 0
DWIDTH 12 0
BBX 12 12 0 -1
BITMAP
0000
1100
2080
D160
0E00
3180
DE60
2000
3FC0
2100
2100
4100
ENDCHAR
STARTCHAR u65B0-ZH_CN
ENCODING 26032
SWIDTH 1000 0
DWIDTH 12 0
BBX 12 12 0 -1
BITMAP
0000
1060
FD80
4500
2900
FDE0
1140
FD40
1140
5540
9240
3240
ENDCHAR
STARTCHAR u65B9
ENCODING 26041
SWIDTH 1000 0
DWIDTH 12 0
BBX 12 12 0 -1
BITMAP
0000
0800
0400
FFE0
0800
0800
0FC0
0840
1040
1040
2040
C180
ENDCHAR
STARTCHAR u65D7
ENCODING 26071
SWIDTH 1000 0
DWIDTH 12 0
BBX 12 12 0 -1
BITMAP
0000
4400
27E0
F800
4240
47E0
7240
53C0
5240
57E0
5240
B420
ENDCHAR
STARTCHAR u65E0
ENCODING 26080
SWIDTH 1000 0
DWIDTH 12 0
BBX 12 12 0 -1
BITMAP
0000
7FC0
0400
0400
0400
FFE0
0A00
0A00
1200
1220
2220
C3E0
ENDCHAR
STARTCHAR u65F6
ENCODING 26102
SWIDTH 1000 0
DWIDTH 12 0
BBX 12 12 0 -1
BITMAP
0000
0040
F040
97E0
9040
9040
F440
9240
9240
9040
F040
01C0
ENDCHAR
STARTCHAR u6602
ENCODING 26114
SWIDTH 1000 0
DWIDTH 12 0
BBX 12 12 0 -1
BITMAP
0000
7FC0
4040
7FC0
4040
7FC0
0800
F3E0
8220
9A20
E2E0
0200
ENDCHAR
STARTCHAR u662F
ENCODING 26159
SWIDTH 1000 0
DWIDTH 12 0
BBX 12 12 0 -1
BITMAP
0000
7FC0
4040
7FC0
4040
7FC0
0000
FFE0
2400
27C0
5C00
83E0
ENDCHAR
STARTCHAR u663E
ENCODING 26174
SWIDTH 1000 0
DWIDTH 12 0
BBX 12 12 0 -1
BITMAP
0000
7FC0
4040
7FC0
4040
7FC0
1100
9120
5140
3180
1100
FFE0
ENDCHAR
STARTCHAR u666E
ENCODING 26222
SWIDTH 1000 0
DWIDTH 12 0
BBX 12 12 0 -1
BITMAP
0000
1100
FFE0
4A40
2A80
FFE0
0000
7FC0
4040
7FC0
4040
7FC0
ENDCHAR
STARTCHAR u6682
ENCODING 26242
SWIDTH 1000 0
DWIDTH 12 0
BBX 12 12 0 -1
BITMAP
0000
2060
FB80
4200
A3E0
FA40
2440
7FC0
4040
7FC0
4040
7FC0
ENDCHAR
STARTCHAR u6697
ENCODING 26263
SWIDTH 1000 0
DWIDTH 12 0
BBX 12 12 0 -1
BITMAP
0000
0100
EFE0
A440
A280
AFE0
E000
A7C0
A440
A7C0
E440
07C0
ENDCHAR
STARTCHAR u66B4
ENCODING 26292
SWIDTH 1000 0
DWIDTH 12 0
BBX 12 12 0 -1
BITMAP
0000
7FC0
4040
7FC0
4040
FFE0
1100
FFE0
2480
D560
2480
CC60
ENDCHAR
STARTCHAR u66F4
ENCODING 26356
SWIDTH 1000 0
DWIDTH 12 0
BBX 12 12 0 -1
BITMAP
0000
FFE0
0400
7FC0
4440
7FC0
4440
7FC0
4400
2400
1800
E7E0
ENDCHAR
STARTCHAR u6700-ZH_CN
ENCODING 26368
SWIDTH 1000 0
DWIDTH 12 0
BBX 12 12 0 -1
BITMAP
0000
7FC0
4040
7FC0
4040
FFE0
4800
7BE0
4A20
5D40
E880
0B60
ENDCHAR
STARTCHAR u6709
ENCODING 26377
SWIDTH 1000 0
DWIDTH 12 0
BBX 12 12 0 -1
BITMAP
0000
0800
FFE0
1000
2000
3FC0
6040
BFC0
2040
3FC0
2040
21C0
ENDCHAR
STARTCHAR u6728
ENCODING 26408
SWIDTH 1000 0
DWIDTH 12 0
BBX 12 12 0 -1
BITMAP
0000
0400
0400
FFE0
1500
1500
1500
2480
2480
4440
8420
0400
ENDCHAR
STARTCHAR u672A
ENCODING 26410
SWIDTH 1000 0
DWIDTH 12 0
BBX 12 12 0 -1
BITMAP
0000
0400
0400
7FC0
0400
0400
FFE0
1500
1500
2480
C460
0400
ENDCHAR
STARTCHAR u672C
ENCODING 26412
SWIDTH 1000 0
DWIDTH 12 0
BBX 12 12 0 -1
BITMAP
0000
0400
0400
FFE0
1500
1500
1500
2480
2480
5F40
8420
0400
ENDCHAR
STARTCHAR u672F
ENCODING 26415
SWIDTH 1000 0
DWIDTH 12 0
BBX 12 12 0 -1
BITMAP
0000
0480
0440
0400
FFE0
1500
1500
2480
2480
4440
8420
0400
ENDCHAR
STARTCHAR u673A
ENCODING 26426
SWIDTH 1000 0
DWIDTH 12 0
BBX 12 12 0 -1
BITMAP
0000
2780
2480
F480
2480
2480
6480
7480
A480
24A0
24A0
28E0
ENDCHAR
STARTCHAR u6740-ZH_HK
ENCODING 26432
SWIDTH 1000 0
DWIDTH 12 0
BBX 12 14 0 -2
BITMAP
0000
0000
6040
1980
0600
1900
60C0
0400
FFE0
0400
2480
4440
8C20
0000
ENDCHAR
STARTCHAR u6743
ENCODING 26435
SWIDTH 1000 0
DWIDTH 12 0
BBX 12 12 0 -1
BITMAP
0000
2FE0
2820
F820
2820
2440
6440
7440
A280
2100
2280
2C60
ENDCHAR
STARTCHAR u6746
ENCODING 26438
SWIDTH 1000 0
DWIDTH 12 0
BBX 12 12 0 -1
BITMAP
0000
27C0
2100
F100
2100
2100
6FE0
7100
A100
2100
2100
2100
ENDCHAR
STARTCHAR u6756
ENCODING 26454
SWIDTH 1000 0
DWIDTH 12 0
BBX 12 12 0 -1
BITMAP
0000
2080
2080
F7E0
2080
2480
6480
7280
A280
2100
2280
2C60
ENDCHAR
STARTCHAR u675F
ENCODING 26463
SWIDTH 1000 0
DWIDTH 12 0
BBX 12 12 0 -1
BITMAP
0000
0400
FFE0
0400
7FC0
4440
4440
7FC0
1500
2480
C460
0400
ENDCHAR
STARTCHAR u6761-ZH_CN
ENCODING 26465
SWIDTH 1000 0
DWIDTH 12 0
BBX 12 12 0 -1
BITMAP
0000
1000
1F80
2080
D100
0E00
F1E0
0400
7FC0
0400
2480
CC60
ENDCHAR
STARTCHAR u6765
ENCODING 26469
SWIDTH 1000 0
DWIDTH 12 0
BBX 12 12 0 -1
BITMAP
0000
0400
7FC0
0400
2480
1500
FFE0
0E00
1500
2480
C460
0400
ENDCHAR
STARTCHAR u677F-ZH_CN
ENCODING 26495
SWIDTH 1000 0
DWIDTH 12 0
BBX 12 12 0 -1
BITMAP
0000
2060
2780
F400
2400
27E0
6420
7620
A540
2480
2540
2A20
ENDCHAR
STARTCHAR u67AA
ENCODING 26538
SWIDTH 1000 0
DWIDTH 12 0
BBX 12 12 0 -1
BITMAP
0000
2100
2280
F440
2820
27C0
6440
7440
A5C0
2400
2420
23E0
ENDCHAR
STARTCHAR u67E5
ENCODING 26597
SWIDTH 1000 0
DWIDTH 12 0
BBX 12 12 0 -1
BITMAP
0000
0400
FFE0
1500
2480
FFE0
2080
3F80
2080
3F80
0000
FFE0
ENDCHAR
STARTCHAR u6807
ENCODING 26631
SWIDTH 1000 0
DWIDTH 12 0
BBX 12 12 0 -1
BITMAP
0000
27C0
2000
F000
2FE0
2100
6100
7540
A520
2520
2920
2300
ENDCHAR
STARTCHAR u6811
ENCODING 26641
SWIDTH 1000 0
DWIDTH 12 0
BBX 12 12 0 -1
BITMAP
0000
2040
2E40
F3E0
2A40
2A40
6540
74C0
AA40
2A40
3040
20C0
ENDCHAR
STARTCHAR u6837
ENCODING 26679
SWIDTH 1000 0
DWIDTH 12 0
BBX 12 12 0 -1
BITMAP
0000
2440
2280
FFE0
2100
2100
67C0
7100
A100
2FE0
2100
2100
ENDCHAR
STARTCHAR u683C
ENCODING 26684
SWIDTH 1000 0
DWIDTH 12 0
BBX 12 12 0 -1
BITMAP
0000
2200
23C0
F440
2A80
2100
6280
6C60
B7C0
2440
2440
27C0
ENDCHAR
STARTCHAR u6846
ENCODING 26694
SWIDTH 1000 0
DWIDTH 12 0
BBX 12 12 0 -1
BITMAP
0000
2FE0
2800
FBE0
2880
2880
6BE0
7880
A880
2BE0
2800
2FE0
ENDCHAR
STARTCHAR u6863
ENCODING 26723
SWIDTH 1000 0
DWIDTH 12 0
BBX 12 12 0 -1
BITMAP
0000
2100
2920
F540
2100
2FE0
6020
7020
AFE0
2020
2020
2FE0
ENDCHAR
STARTCHAR u68CB
ENCODING 26827
SWIDTH 1000 0
DWIDTH 12 0
BBX 12 12 0 -1
BITMAP
0000
2440
2FE0
F440
27C0
2440
67C0
7440
AFE0
2000
2440
2820
ENDCHAR
STARTCHAR u6A21
ENCODING 27169
SWIDTH 1000 0
DWIDTH 12 0
BBX 12 12 0 -1
BITMAP
0000
2280
2FE0
F280
27C0
2440
67C0
7440
AFE0
2100
2280
2C60
ENDCHAR
STARTCHAR u6B21
ENCODING 27425
SWIDTH 1000 0
DWIDTH 12 0
BBX 12 12 0 -1
BITMAP
0000
8400
4400
47E0
0820
1140
0100
4100
4280
4280
8440
9820
ENDCHAR
STARTCHAR u6B62
ENCODING 27490
SWIDTH 1000 0
DWIDTH 12 0
BBX 12 12 0 -1
BITMAP
0000
0400
0400
0400
2400
27C0
2400
2400
2400
2400
2400
FFE0
ENDCHAR
STARTCHAR u6B63
ENCODING 27491
SWIDTH 1000 0
DWIDTH 12 0
BBX 12 12 0 -1
BITMAP
0000
FFE0
0400
0400
0400
2400
27C0
2400
2400
2400
2400
FFE0
ENDCHAR
STARTCHAR u6B65
ENCODING 27493
SWIDTH 1000 0
DWIDTH 12 0
BBX 12 12 0 -1
BITMAP
0000
0400
27C0
2400
2400
FFE0
0400
2440
C480
0100
0600
7800
ENDCHAR
STARTCHAR u6B66
ENCODING 27494
SWIDTH 1000 0
DWIDTH 12 0
BBX 12 12 0 -1
BITMAP
0000
7D40
0120
FFE0
0100
1100
5100
5D00
5080
50A0
5C60
E020
ENDCHAR
STARTCHAR u6B7B
ENCODING 27515
SWIDTH 1000 0
DWIDTH 12 0
BBX 12 12 0 -1
BITMAP
0000
FFE0
2200
2200
3A20
4A40
4B80
AA00
1200
1220
2220
C1E0
ENDCHAR
STARTCHAR u6B8A
ENCODING 27530
SWIDTH 1000 0
DWIDTH 12 0
BBX 12 12 0 -1
BITMAP
0000
F500
4500
47C0
7900
9100
9FE0
5100
2380
2540
4920
8100
ENDCHAR
STARTCHAR u6BB5
ENCODING 27573
SWIDTH 1000 0
DWIDTH 12 0
BBX 12 12 0 -1
BITMAP
0000
19C0
6140
4140
7940
4660
7800
43E0
4220
F940
4080
4760
ENDCHAR
STARTCHAR u6BCF
ENCODING 27599
SWIDTH 1000 0
DWIDTH 12 0
BBX 12 12 0 -1
BITMAP
0000
2000
3FE0
4000
BFC0
2440
2240
FFE0
4440
4240
7FE0
0040
ENDCHAR
STARTCHAR u6C11
ENCODING 27665
SWIDTH 1000 0
DWIDTH 12 0
BBX 12 12 0 -1
BITMAP
0000
FFC0
8040
8040
FFC0
8400
8400
FFE0
8200
8100
98A0
E060
ENDCHAR
STARTCHAR u6C72
ENCODING 27762
SWIDTH 1000 0
DWIDTH 12 0
BBX 12 12 0 -1
BITMAP
0000
4FC0
2440
0440
8480
44E0
0420
0620
4540
4880
8940
9620
ENDCHAR
STARTCHAR u6CA1
ENCODING 27809
SWIDTH 1000 0
DWIDTH 12 0
BBX 12 12 0 -1
BITMAP
0000
4780
2480
0480
8480
58E0
0000
0FC0
4840
4480
8300
9CE0
ENDCHAR
STARTCHAR u6CBB
ENCODING 27835
SWIDTH 1000 0
DWIDTH 12 0
BBX 12 12 0 -1
BITMAP
0000
4200
2200
0480
8840
5FA0
0020
0FC0
4840
4840
8840
8FC0
ENDCHAR
STARTCHAR u6CD5
ENCODING 27861
SWIDTH 1000 0
DWIDTH 12 0
BBX 12 12 0 -1
BITMAP
0000
4100
2100
0FC0
8100
4100
1FE0
0200
4440
4440
89A0
9E20
ENDCHAR
STARTCHAR u6D3B
ENCODING 27963
SWIDTH 1000 0
DWIDTH 12 0
BBX 12 12 0 -1
BITMAP
0000
40C0
2F00
0100
8100
5FE0
0100
0100
4FC0
4840
8840
8FC0
ENDCHAR
STARTCHAR u6D88
ENCODING 28040
SWIDTH 1000 0
DWIDTH 12 0
BBX 12 12 0 -1
BITMAP
0000
4920
2540
0100
8FE0
4820
0FE0
0820
4FE0
4820
8820
8860
ENDCHAR
STARTCHAR u6E05
ENCODING 28165
SWIDTH 1000 0
DWIDTH 12 0
BBX 12 12 0 -1
BITMAP
0000
4100
2FC0
0100
8FC0
4100
1FE0
0840
4FC0
4840
8FC0
8840
ENDCHAR
STARTCHAR u6E38
ENCODING 28216
SWIDTH 1000 0
DWIDTH 12 0
BBX 12 12 0 -1
BITMAP
0000
9100
4900
3DE0
9200
51C0
1C40
1480
57E0
5480
9480
AD80
ENDCHAR
STARTCHAR u6EE1
ENCODING 28385
SWIDTH 1000 0
DWIDTH 12 0
BBX 12 12 0 -1
BITMAP
0000
8480
5FE0
0480
9FE0
4480
1FE0
14A0
54A0
5B60
9020
9060
ENDCHAR
STARTCHAR u704C
ENCODING 28748
SWIDTH 1000 0
DWIDTH 12 0
BBX 12 12 0 -1
BITMAP
0000
4440
2FE0
0440
8AA0
4EE0
0480
07E0
4C80
57E0
8480
87E0
ENDCHAR
STARTCHAR u706D
ENCODING 28781
SWIDTH 1000 0
DWIDTH 12 0
BBX 12 12 0 -1
BITMAP
0000
FFE0
0400
0400
2440
2440
4480
0A00
0A00
1100
2080
C060
ENDCHAR
STARTCHAR u70AE
ENCODING 28846
SWIDTH 1000 0
DWIDTH 12 0
BBX 12 12 0 -1
BITMAP
0000
2400
27E0
A820
B7A0
A4A0
24A0
27A0
2460
5400
5420
83E0
ENDCHAR
STARTCHAR u70B9
ENCODING 28857
SWIDTH 1000 0
DWIDTH 12 0
BBX 12 12 0 -1
BITMAP
0000
0400
07E0
0400
0400
7FC0
4040
4040
7FC0
0000
5240
8920
ENDCHAR
STARTCHAR u7136-ZH_HK
ENCODING 28982
SWIDTH 1000 0
DWIDTH 12 0
BBX 12 14 0 -2
BITMAP
0000
0000
4140
7920
4FC0
A900
1100
5280
2440
C820
0000
5240
8920
0000
ENDCHAR
STARTCHAR u724C
ENCODING 29260
SWIDTH 1000 0
DWIDTH 12 0
BBX 12 12 0 -1
BITMAP
0000
5200
57E0
5520
7FE0
4520
47E0
7280
5480
5FE0
5080
9080
ENDCHAR
STARTCHAR u7259
ENCODING 29273
SWIDTH 1000 0
DWIDTH 12 0
BBX 12 12 0 -1
BITMAP
0000
7FC0
2100
2100
4100
7FE0
0300
0500
0900
3100
C100
0700
ENDCHAR
STARTCHAR u7267
ENCODING 29287
SWIDTH 1000 0
DWIDTH 12 0
BBX 12 12 0 -1
BITMAP
0000
2200
A200
F3E0
A440
2A40
3240
E280
2280
2100
2280
2C60
ENDCHAR
STARTCHAR u7269
ENCODING 29289
SWIDTH 1000 0
DWIDTH 12 0
BBX 12 12 0 -1
BITMAP
0000
2400
A400
F7E0
AAA0
22A0
32A0
E4A0
2520
2920
2220
24C0
ENDCHAR
STARTCHAR u7279
ENCODING 29305
SWIDTH 1000 0
DWIDTH 12 0
BBX 12 12 0 -1
BITMAP
0000
2100
A7C0
F100
A100
2FE0
3040
EFE0
2440
2240
2040
21C0
ENDCHAR
STARTCHAR u72C2
ENCODING 29378
SWIDTH 1000 0
DWIDTH 12 0
BBX 12 12 0 -1
BITMAP
0000
AFE0
4100
4100
A100
2100
2FE0
6100
A100
2100
2100
CFE0
ENDCHAR
STARTCHAR u72EC
ENCODING 29420
SWIDTH 1000 0
DWIDTH 12 0
BBX 12 12 0 -1
BITMAP
0000
A100
4100
4FE0
A920
2920
2920
6FE0
A100
2140
21A0
CE20
ENDCHAR
STARTCHAR u72EE
ENCODING 29422
SWIDTH 1000 0
DWIDTH 12 0
BBX 12 12 0 -1
BITMAP
0000
ABE0
4880
4880
ABE0
2AA0
2AA0
6AA0
AAA0
2AE0
2880
D080
ENDCHAR
STARTCHAR u7387
ENCODING 29575
SWIDTH 1000 0
DWIDTH 12 0
BBX 12 12 0 -1
BITMAP
0000
0400
FFE0
4440
2A80
0400
4A40
9F20
0400
FFE0
0400
0400
ENDCHAR
STARTCHAR u73A9
ENCODING 29609
SWIDTH 1000 0
DWIDTH 12 0
BBX 12 12 0 -1
BITMAP
0000
0FC0
E000
4000
4000
5FE0
E480
4480
4480
68A0
C8A0
10E0
ENDCHAR
STARTCHAR u73AF
ENCODING 29615
SWIDTH 1000 0
DWIDTH 12 0
BBX 12 12 0 -1
BITMAP
0000
0FE0
F080
2100
2100
2340
F520
2920
2100
3100
C100
0100
ENDCHAR
STARTCHAR u73B0
ENCODING 29616
SWIDTH 1000 0
DWIDTH 12 0
BBX 12 12 0 -1
BITMAP
0000
0FC0
E840
4940
4940
4940
E940
4940
4100
62A0
C4A0
18E0
ENDCHAR
STARTCHAR u7406
ENCODING 29702
SWIDTH 1000 0
DWIDTH 12 0
BBX 12 12 0 -1
BITMAP
0000
0FE0
E920
4920
4FE0
4920
E920
4FE0
4100
6FE0
C100
1FE0
ENDCHAR
STARTCHAR u751A
ENCODING 29978
SWIDTH 1000 0
DWIDTH 12 0
BBX 12 12 0 -1
BITMAP
0000
2080
FFE0
2080
3F80
2080
3F80
2080
FFE0
4900
5080
7FC0
ENDCHAR
STARTCHAR u751F
ENCODING 29983
SWIDTH 1000 0
DWIDTH 12 0
BBX 12 12 0 -1
BITMAP
0000
4400
4400
7FC0
4400
8400
0400
7FC0
0400
0400
0400
FFE0
ENDCHAR
STARTCHAR u7528
ENCODING 29992
SWIDTH 1000 0
DWIDTH 12 0
BBX 12 12 0 -1
BITMAP
0000
7FC0
4440
4440
7FC0
4440
4440
7FC0
4440
4440
4440
84C0
ENDCHAR
STARTCHAR u7531
ENCODING 30001
SWIDTH 1000 0
DWIDTH 12 0
BBX 12 12 0 -1
BITMAP
0000
0400
0400
FFE0
8420
8420
8420
FFE0
8420
8420
8420
FFE0
ENDCHAR
STARTCHAR u7532
ENCODING 30002
SWIDTH 1000 0
DWIDTH 12 0
BBX 12 12 0 -1
BITMAP
0000
FFE0
8420
8420
FFE0
8420
8420
FFE0
0400
0400
0400
0400
ENDCHAR
STARTCHAR u7559
ENCODING 30041
SWIDTH 1000 0
DWIDTH 12 0
BBX 12 12 0 -1
BITMAP
0000
1BE0
E120
8120
8A20
F460
0000
7FC0
4440
7FC0
4440
7FC0
ENDCHAR
STARTCHAR u7597
ENCODING 30103
SWIDTH 1000 0
DWIDTH 12 0
BBX 12 12 0 -1
BITMAP
0000
0200
7FE0
4000
DFC0
4080
4100
C200
4200
4200
4200
8E00
ENDCHAR
STARTCHAR u7684
ENCODING 30340
SWIDTH 1000 0
DWIDTH 12 0
BBX 12 12 0 -1
BITMAP
0000
2200
4200
FBE0
8C20
8820
8920
F8A0
88A0
8820
8820
F8C0
ENDCHAR
STARTCHAR u76D4
ENCODING 30420
SWIDTH 1000 0
DWIDTH 12 0
BBX 12 12 0 -1
BITMAP
0000
2000
FFE0
2200
5240
5540
8880
3060
7FC0
4A40
4A40
FFE0
ENDCHAR
STARTCHAR u76D8
ENCODING 30424
SWIDTH 1000 0
DWIDTH 12 0
BBX 12 12 0 -1
BITMAP
0000
0400
3FC0
2440
2240
FFE0
2440
42C0
0000
7FC0
4A40
FFE0
ENDCHAR
STARTCHAR u76EE
ENCODING 30446
SWIDTH 1000 0
DWIDTH 12 0
BBX 12 12 0 -1
BITMAP
0000
7FC0
4040
4040
7FC0
4040
4040
4040
7FC0
4040
4040
7FC0
ENDCHAR
STARTCHAR u76F4
ENCODING 30452
SWIDTH 1000 0
DWIDTH 12 0
BBX 12 12 0 -1
BITMAP
0000
0400
7FC0
0400
3F80
2080
3F80
2080
3F80
2080
2080
FFE0
ENDCHAR
STARTCHAR u76F8
ENCODING 30456
SWIDTH 1000 0
DWIDTH 12 0
BBX 12 12 0 -1
BITMAP
0000
27E0
2420
FC20
27E0
2420
7420
6C20
A7E0
2420
2420
27E0
ENDCHAR
STARTCHAR u76FE
ENCODING 30462
SWIDTH 1000 0
DWIDTH 12 0
BBX 12 12 0 -1
BITMAP
0000
7FC0
4200
7FE0
4200
5FC0
5040
5FC0
5040
5FC0
5040
9FC0
ENDCHAR
STARTCHAR u770B
ENCODING 30475
SWIDTH 1000 0
DWIDTH 12 0
BBX 12 12 0 -1
BITMAP
0000
7FC0
0400
7FC0
0800
FFE0
2040
7FC0
A040
3FC0
2040
3FC0
ENDCHAR
STARTCHAR u771F
ENCODING 30495
SWIDTH 1000 0
DWIDTH 12 0
BBX 12 12 0 -1
BITMAP
0000
0400
7FC0
0400
3F80
2080
3F80
2080
2080
FFE0
2080
C060
ENDCHAR
STARTCHAR u7740-ZH_CN
ENCODING 30528
SWIDTH 1000 0
DWIDTH 12 0
BBX 12 12 0 -1
BITMAP
0000
1100
FFE0
0800
7FC0
1000
FFE0
2040
6040
BFC0
2040
3FC0
ENDCHAR
STARTCHAR u7784
ENCODING 30596
SWIDTH 1000 0
DWIDTH 12 0
BBX 12 12 0 -1
BITMAP
0000
E440
AFE0
A440
E000
AFE0
A920
E920
AFE0
A920
E920
0FE0
ENDCHAR
STARTCHAR u77DB
ENCODING 30683
SWIDTH 1000 0
DWIDTH 12 0
BBX 12 12 0 -1
BITMAP
0000
7FC0
0080
1900
0600
FFE0
0C20
1440
2480
C400
0400
1C00
ENDCHAR
STARTCHAR u7834
ENCODING 30772
SWIDTH 1000 0
DWIDTH 12 0
BBX 12 12 0 -1
BITMAP
0000
F080
27E0
24A0
4480
77E0
D420
5620
5540
5480
7540
0A20
ENDCHAR
STARTCHAR u7840
ENCODING 30784
SWIDTH 1000 0
DWIDTH 12 0
BBX 12 12 0 -1
BITMAP
0000
E100
4920
4920
8920
EFE0
A100
A100
A920
A920
E920
0FE0
ENDCHAR
STARTCHAR u786E-ZH_CN
ENCODING 30830
SWIDTH 1000 0
DWIDTH 12 0
BBX 12 12 0 -1
BITMAP
0000
F200
23C0
2440
4FE0
7520
D7E0
5520
57E0
5520
7520
0960
ENDCHAR
STARTCHAR u788D
ENCODING 30861
SWIDTH 1000 0
DWIDTH 12 0
BBX 12 12 0 -1
BITMAP
0000
F7C0
2440
27C0
4440
77C0
D000
5FE0
5080
5FE0
7480
0180
ENDCHAR
STARTCHAR u788E
ENCODING 30862
SWIDTH 1000 0
DWIDTH 12 0
BBX 12 12 0 -1
BITMAP
0000
F100
2FE0
2000
4440
7440
DAA0
5100
5FE0
5100
7100
0100
ENDCHAR
STARTCHAR u78BE
ENCODING 30910
SWIDTH 1000 0
DWIDTH 12 0
BBX 12 12 0 -1
BITMAP
0000
EFE0
4820
4FE0
8940
EFE0
A940
AFE0
AA80
AAA0
EA40
1320
ENDCHAR
STARTCHAR u793A
ENCODING 31034
SWIDTH 1000 0
DWIDTH 12 0
BBX 12 12 0 -1
BITMAP
0000
7FC0
0000
0000
FFE0
0400
0400
2480
2440
4420
8420
1C00
ENDCHAR
STARTCHAR u796D
ENCODING 31085
SWIDTH 1000 0
DWIDTH 12 0
BBX 12 12 0 -1
BITMAP
0000
4200
7BE0
AA20
5140
2080
DF60
0000
7FC0
0400
2480
CC60
ENDCHAR
STARTCHAR u79BB
ENCODING 31163
SWIDTH 1000 0
DWIDTH 12 0
BBX 12 12 0 -1
BITMAP
0000
0400
FFE0
1100
4E40
5140
7FC0
0400
FFE0
9120
BEA0
8060
ENDCHAR
STARTCHAR u79CD
ENCODING 31181
SWIDTH 1000 0
DWIDTH 12 0
BBX 12 12 0 -1
BITMAP
0000
1100
E100
2FE0
2920
F920
2920
6FE0
7100
A100
2100
2100
ENDCHAR
STARTCHAR u79FB
ENCODING 31227
SWIDTH 1000 0
DWIDTH 12 0
BBX 12 12 0 -1
BITMAP
0000
1100
E3E0
2C20
2240
F180
2E00
63E0
6C20
B240
2180
2E00
ENDCHAR
STARTCHAR u7A00
ENCODING 31232
SWIDTH 1000 0
DWIDTH 12 0
BBX 12 12 0 -1
BITMAP
0000
1660
E180
2660
2100
F7E0
2280
67E0
6CA0
B4A0
24E0
2080
ENDCHAR
STARTCHAR u7A0B
ENCODING 31243
SWIDTH 1000 0
DWIDTH 12 0
BBX 12 12 0 -1
BITMAP
0000
17C0
E440
2440
27C0
F000
2FE0
6100
77C0
A100
2100
2FE0
ENDCHAR
STARTCHAR u7A7A-ZH_CN
ENCODING 31354
SWIDTH 1000 0
DWIDTH 12 0
BBX 12 12 0 -1
BITMAP
0000
0400
FFE0
8020
1100
2080
C060
7FC0
0400
0400
0400
FFE0
ENDCHAR
STARTCHAR u7A7F
ENCODING 31359
SWIDTH 1000 0
DWIDTH 12 0
BBX 12 12 0 -1
BITMAP
0000
0400
FFE0
9120
2080
7FC0
2100
4100
7FE0
0900
3100
C300
ENDCHAR
STARTCHAR u7A97-ZH_HK
ENCODING 31383
SWIDTH 1000 0
DWIDTH 12 0
BBX 12 14 0 -2
BITMAP
0000
0000
0400
FFE0
8A20
73C0
0400
7FC0
4940
7240
4E40
5140
7FC0
0000
ENDCHAR
STARTCHAR u7ACB
ENCODING 31435
SWIDTH 1000 0
DWIDTH 12 0
BBX 12 12 0 -1
BITMAP
0000
0800
0400
FFE0
0000
2080
2080
1080
1100
1100
0200
FFE0
ENDCHAR
STARTCHAR u7AD9
ENCODING 31449
SWIDTH 1000 0
DWIDTH 12 0
BBX 12 12 0 -1
BITMAP
0000
4100
2100
F9E0
0100
9100
5100
57E0
2420
3C20
C420
07E0
ENDCHAR
STARTCHAR u7ADE
ENCODING 31454
SWIDTH 1000 0
DWIDTH 12 0
BBX 12 12 0 -1
BITMAP
0000
0400
7FC0
1100
FFE0
0000
3F80
2080
3F80
1100
2120
C1E0
ENDCHAR
STARTCHAR u7B26
ENCODING 31526
SWIDTH 1000 0
DWIDTH 12 0
BBX 12 12 0 -1
BITMAP
0000
4200
7BE0
9480
2000
2080
4FE0
C080
4880
4480
4080
4380
ENDCHAR
STARTCHAR u7B2C
ENCODING 31532
SWIDTH 1000 0
DWIDTH 12 0
BBX 12 12 0 -1
BITMAP
0000
4200
7BE0
9480
7FC0
0440
7FC0
4400
7FE0
1420
2420
C4C0
ENDCHAR
STARTCHAR u7B49
ENCODING 31561
SWIDTH 1000 0
DWIDTH 12 0
BBX 12 12 0 -1
BITMAP
0000
4200
7BE0
9480
7FC0
0400
FFE0
0080
FFE0
1080
0880
0380
ENDCHAR
STARTCHAR u7B7E
ENCODING 31614
SWIDTH 1000 0
DWIDTH 12 0
BBX 12 12 0 -1
BITMAP
0000
4200
7BE0
9480
0A00
3180
DF60
0040
4880
2480
0100
FFE0
ENDCHAR
STARTCHAR u7B80
ENCODING 31616
SWIDTH 1000 0
DWIDTH 12 0
BBX 12 12 0 -1
BITMAP
0000
4200
7BE0
9480
5FC0
0040
5F40
5140
5F40
5140
5F40
40C0
ENDCHAR
STARTCHAR u7B97
ENCODING 31639
SWIDTH 1000 0
DWIDTH 12 0
BBX 12 12 0 -1
BITMAP
0000
4200
7BE0
9480
7FC0
4040
7FC0
4040
7FC0
1100
FFE0
2100
ENDCHAR
STARTCHAR u7BA1
ENCODING 31649
SWIDTH 1000 0
DWIDTH 12 0
BBX 12 12 0 -1
BITMAP
0000
4200
7BE0
9480
FFE0
A0A0
3F80
2000
3FC0
2040
2040
3FC0
ENDCHAR
STARTCHAR u7BAD
ENCODING 31661
SWIDTH 1000 0
DWIDTH 12 0
BBX 12 12 0 -1
BITMAP
0000
4200
7BE0
9480
2100
FFE0
0000
7D40
4540
7D40
4540
4CC0
ENDCHAR
STARTCHAR u7BB1
ENCODING 31665
SWIDTH 1000 0
DWIDTH 12 0
BBX 12 12 0 -1
BITMAP
0000
4200
7BE0
9480
0000
23E0
FA20
23E0
7220
6BE0
A220
23E0
ENDCHAR
STARTCHAR u7C7B
ENCODING 31867
SWIDTH 1000 0
DWIDTH 12 0
BBX 12 12 0 -1
BITMAP
0000
4440
2480
FFE0
0E00
3580
C460
0400
FFE0
0A00
3180
C060
ENDCHAR
STARTCHAR u7CFB
ENCODING 31995
SWIDTH 1000 0
DWIDTH 12 0
BBX 12 12 0 -1
BITMAP
0000
01C0
7E00
0880
3300
0C00
3040
FFA0
0400
2480
C460
1C00
ENDCHAR
STARTCHAR u7D27-ZH_HK
ENCODING 32039
SWIDTH 1000 0
DWIDTH 12 0
BBX 12 14 0 -2
BITMAP
0000
0000
17E0
9020
9240
9180
9660
0900
1240
FFE0
0400
2480
C460
0000
ENDCHAR
STARTCHAR u7EA7
ENCODING 32423
SWIDTH 1000 0
DWIDTH 12 0
BBX 12 12 0 -1
BITMAP
0000
4FC0
4440
8440
A480
C4E0
4420
8620
E540
0880
2940
D620
ENDCHAR
STARTCHAR u7EBF
ENCODING 32447
SWIDTH 1000 0
DWIDTH 12 0
BBX 12 12 0 -1
BITMAP
0000
2140
2120
41E0
9700
E100
21E0
4700
F120
00C0
31A0
CE60
ENDCHAR
STARTCHAR u7EC8
ENCODING 32456
SWIDTH 1000 0
DWIDTH 12 0
BBX 12 12 0 -1
BITMAP
0000
4400
47C0
8840
B480
C300
4480
9860
E600
0180
2C00
C3C0
ENDCHAR
STARTCHAR u7ECF
ENCODING 32463
SWIDTH 1000 0
DWIDTH 12 0
BBX 12 12 0 -1
BITMAP
0000
4FC0
4040
8080
A100
C680
5860
87C0
E100
0100
2100
CFE0
ENDCHAR
STARTCHAR u7ED3
ENCODING 32467
SWIDTH 1000 0
DWIDTH 12 0
BBX 12 12 0 -1
BITMAP
0000
2100
2100
4FE0
9100
E100
27C0
4000
F7C0
0440
3440
C7C0
ENDCHAR
STARTCHAR u7ED9
ENCODING 32473
SWIDTH 1000 0
DWIDTH 12 0
BBX 12 12 0 -1
BITMAP
0000
4100
4280
8440
A820
C7C0
4000
8FE0
E820
0820
2820
CFE0
ENDCHAR
STARTCHAR u7EE7
ENCODING 32487
SWIDTH 1000 0
DWIDTH 12 0
BBX 12 12 0 -1
BITMAP
0000
4880
4AA0
89C0
A880
CBE0
4880
89C0
EAA0
0880
2800
CFE0
ENDCHAR
STARTCHAR u7EED
ENCODING 32493
SWIDTH 1000 0
DWIDTH 12 0
BBX 12 12 0 -1
BITMAP
0000
4100
47C0
8100
AFE0
C420
4A80
8480
EFE0
0100
2240
CC20
ENDCHAR
STARTCHAR u7F51
ENCODING 32593
SWIDTH 1000 0
DWIDTH 12 0
BBX 12 12 0 -1
BITMAP
0000
FFE0
8020
88A0
AAA0
9120
9120
AAA0
AAA0
C420
8020
80E0
ENDCHAR
STARTCHAR u7F6E
ENCODING 32622
SWIDTH 1000 0
DWIDTH 12 0
BBX 12 12 0 -1
BITMAP
0000
FFE0
9120
FFE0
0400
FFE0
0400
3F80
2080
3F80
2080
FFE0
ENDCHAR
STARTCHAR u7F72
ENCODING 32626
SWIDTH 1000 0
DWIDTH 12 0
BBX 12 12 0 -1
BITMAP
0000
7FC0
4A40
7FC0
0820
7F40
0880
FFE0
2040
7FC0
A040
3FC0
ENDCHAR
STARTCHAR u7F8E
ENCODING 32654
SWIDTH 1000 0
DWIDTH 12 0
BBX 12 12 0 -1
BITMAP
0000
1100
FFE0
0400
7FC0
0400
FFE0
0400
FFE0
0A00
3180
C060
ENDCHAR
STARTCHAR u8005
ENCODING 32773
SWIDTH 1000 0
DWIDTH 12 0
BBX 12 12 0 -1
BITMAP
0000
0820
7F40
0880
0900
FFE0
1000
3FC0
6040
BFC0
2040
3FC0
ENDCHAR
STARTCHAR u800C
ENCODING 32780
SWIDTH 1000 0
DWIDTH 12 0
BBX 12 12 0 -1
BITMAP
0000
FFE0
0400
0800
FFE0
9120
9120
9120
9120
9120
9120
8060
ENDCHAR
STARTCHAR u8010
ENCODING 32784
SWIDTH 1000 0
DWIDTH 12 0
BBX 12 12 0 -1
BITMAP
0000
FE40
1040
21E0
FE40
AA40
AB40
AAC0
AA40
AA40
AA40
86C0
ENDCHAR
STARTCHAR u8017-ZH_CN
ENCODING 32791
SWIDTH 1000 0
DWIDTH 12 0
BBX 12 12 0 -1
BITMAP
0000
20E0
2700
F900
21E0
F700
2100
F9E0
2700
7100
A920
20E0
ENDCHAR
STARTCHAR u804C
ENCODING 32844
SWIDTH 1000 0
DWIDTH 12 0
BBX 12 12 0 -1
BITMAP
0000
FBE0
5220
7220
5220
5220
73E0
5000
5000
7A40
D220
1420
ENDCHAR
STARTCHAR u8054-ZH_CN
ENCODING 32852
SWIDTH 1000 0
DWIDTH 12 0
BBX 12 12 0 -1
BITMAP
0000
F440
5280
77C0
5100
5100
7100
5FE0
5100
7A80
D440
1820
ENDCHAR
STARTCHAR u805A-ZH_HK
ENCODING 32858
SWIDTH 1000 0
DWIDTH 12 0
BBX 12 14 0 -2
BITMAP
0000
0000
FFE0
4820
7A20
4A40
7980
CA40
0C20
2480
2480
5540
8420
0000
ENDCHAR
STARTCHAR u80C1
ENCODING 32961
SWIDTH 1000 0
DWIDTH 12 0
BBX 12 12 0 -1
BITMAP
0000
E400
A400
BF80
E480
A480
ACC0
F4A0
A4A0
A880
A880
B300
ENDCHAR
STARTCHAR u80DC
ENCODING 32988
SWIDTH 1000 0
DWIDTH 12 0
BBX 12 12 0 -1
BITMAP
0000
E900
A900
AFC0
E900
B100
A100
EFC0
A100
A100
A100
AFE0
ENDCHAR
STARTCHAR u80FD
ENCODING 33021
SWIDTH 1000 0
DWIDTH 12 0
BBX 12 12 0 -1
BITMAP
0000
4260
9380
EA00
0220
F9E0
8800
FA60
8B80
FA00
8A20
99E0
ENDCHAR
STARTCHAR u8170
ENCODING 33136
SWIDTH 1000 0
DWIDTH 12 0
BBX 12 12 0 -1
BITMAP
0000
EFE0
A280
AFE0
EAA0
AFE0
A100
EFE0
A240
A680
A180
AE60
ENDCHAR
STARTCHAR u817E
ENCODING 33150
SWIDTH 1000 0
DWIDTH 12 0
BBX 12 12 0 -1
BITMAP
0000
E540
AFE0
A200
EFE0
A440
AFA0
E480
A7E0
A020
AFA0
A060
ENDCHAR
STARTCHAR u81C2
ENCODING 33218
SWIDTH 1000 0
DWIDTH 12 0
BBX 12 12 0 -1
BITMAP
0000
7880
4BE0
7940
6BE0
A880
7FC0
4040
7FC0
4040
7FC0
4040
ENDCHAR
STARTCHAR u81EA
ENCODING 33258
SWIDTH 1000 0
DWIDTH 12 0
BBX 12 12 0 -1
BITMAP
0000
0400
0800
7FC0
4040
7FC0
4040
4040
7FC0
4040
4040
7FC0
ENDCHAR
STARTCHAR u81F3
ENCODING 33267
SWIDTH 1000 0
DWIDTH 12 0
BBX 12 12 0 -1
BITMAP
0000
FFE0
0800
1100
2080
7F40
0440
0400
7FC0
0400
0400
FFE0
ENDCHAR
STARTCHAR u820D
ENCODING 33293
SWIDTH 1000 0
DWIDTH 12 0
BBX 12 12 0 -1
BITMAP
0000
0E00
3180
C060
3F80
0400
FFE0
0400
7FC0
4040
4040
7FC0
ENDCHAR
STARTCHAR u8272
ENCODING 33394
SWIDTH 1000 0
DWIDTH 12 0
BBX 12 12 0 -1
BITMAP
0000
2000
3F00
4100
FFC0
4440
4440
7FC0
4000
4020
4020
3FE0
ENDCHAR
STARTCHAR u82B1
ENCODING 33457
SWIDTH 1000 0
DWIDTH 12 0
BBX 12 12 0 -1
BITMAP
0000
1100
FFE0
1100
0000
1200
2220
62C0
AF00
2200
2220
21E0
ENDCHAR
STARTCHAR u82DB
ENCODING 33499
SWIDTH 1000 0
DWIDTH 12 0
BBX 12 12 0 -1
BITMAP
0000
1100
FFE0
1100
0000
FFE0
0040
3E40
2240
2240
3E40
01C0
ENDCHAR
STARTCHAR u82E5
ENCODING 33509
SWIDTH 1000 0
DWIDTH 12 0
BBX 12 12 0 -1
BITMAP
0000
1100
FFE0
1100
0800
FFE0
1000
2000
7FC0
A040
2040
3FC0
ENDCHAR
STARTCHAR u8303
ENCODING 33539
SWIDTH 1000 0
DWIDTH 12 0
BBX 12 12 0 -1
BITMAP
0000
1100
FFE0
1100
4000
2FC0
8840
4840
09C0
2800
4820
87E0
ENDCHAR
STARTCHAR u83B7
ENCODING 33719
SWIDTH 1000 0
DWIDTH 12 0
BBX 12 12 0 -1
BITMAP
0000
1100
FFE0
1100
A000
4140
A120
2FE0
6100
A280
2440
C820
ENDCHAR
STARTCHAR u83DC
ENCODING 33756
SWIDTH 1000 0
DWIDTH 12 0
BBX 12 12 0 -1
BITMAP
0000
1100
FFE0
1100
01C0
7E00
4840
2480
FFE0
1500
2480
C460
ENDCHAR
STARTCHAR u85CF
ENCODING 34255
SWIDTH 1000 0
DWIDTH 12 0
BBX 12 12 0 -1
BITMAP
0000
1100
FFE0
1100
00A0
BFE0
AA80
EFA0
29A0
EF40
AA40
AFA0
ENDCHAR
STARTCHAR u86EE-ZH_HK
ENCODING 34542
SWIDTH 1000 0
DWIDTH 12 0
BBX 12 14 0 -2
BITMAP
0000
0000
0400
FFE0
0900
4940
9120
3F80
2480
2480
3FA0
0420
FFE0
0000
ENDCHAR
STARTCHAR u878D
ENCODING 34701
SWIDTH 1000 0
DWIDTH 12 0
BBX 12 12 0 -1
BITMAP
0000
FC80
0080
7BE0
4AA0
7AA0
02A0
FFE0
AA80
FEA0
92E0
9720
ENDCHAR
STARTCHAR u884C
ENCODING 34892
SWIDTH 1000 0
DWIDTH 12 0
BBX 12 12 0 -1
BITMAP
0000
27C0
4000
8000
2FE0
4080
C080
4080
4080
4080
4080
4380
ENDCHAR
STARTCHAR u8865
ENCODING 34917
SWIDTH 1000 0
DWIDTH 12 0
BBX 12 12 0 -1
BITMAP
0000
4100
2100
F100
1100
2180
2940
7120
A900
2100
2100
2100
ENDCHAR
STARTCHAR u8896
ENCODING 34966
SWIDTH 1000 0
DWIDTH 12 0
BBX 12 12 0 -1
BITMAP
0000
8100
4100
EFE0
2920
4920
5920
EFE0
5920
4920
4920
4FE0
ENDCHAR
STARTCHAR u88AB
ENCODING 34987
SWIDTH 1000 0
DWIDTH 12 0
BBX 12 12 0 -1
BITMAP
0000
8100
4FE0
E920
2900
4FE0
5C20
EA20
5940
4880
4940
5620
ENDCHAR
STARTCHAR u88C5
ENCODING 35013
SWIDTH 1000 0
DWIDTH 12 0
BBX 12 12 0 -1
BITMAP
0000
9100
5FE0
1100
3100
D7C0
0400
FFE0
1200
E140
2C80
3060
ENDCHAR
STARTCHAR u8981
ENCODING 35201
SWIDTH 1000 0
DWIDTH 12 0
BBX 12 12 0 -1
BITMAP
0000
FFE0
0A00
7FC0
4A40
7FC0
0800
FFE0
1080
3100
0E00
F1E0
ENDCHAR
STARTCHAR u8986
ENCODING 35206
SWIDTH 1000 0
DWIDTH 12 0
BBX 12 12 0 -1
BITMAP
0000
FFE0
4A40
7FC0
2400
47E0
9840
2840
4FC0
D440
4380
5C60
ENDCHAR
STARTCHAR u89C2
ENCODING 35266
SWIDTH 1000 0
DWIDTH 12 0
BBX 12 12 0 -1
BITMAP
0000
07C0
F440
1540
9540
5540
5540
2540
2100
52A0
54A0
88E0
ENDCHAR
STARTCHAR u89C6
ENCODING 35270
SWIDTH 1000 0
DWIDTH 12 0
BBX 12 12 0 -1
BITMAP
0000
8FC0
4840
E940
2940
4940
4940
E940
5100
42A0
44A0
58E0
ENDCHAR
STARTCHAR u89C9
ENCODING 35273
SWIDTH 1000 0
DWIDTH 12 0
BBX 12 12 0 -1
BITMAP
0000
4840
2480
FFE0
8020
BFA0
2080
2480
2480
0A00
1220
E3E0
ENDCHAR
STARTCHAR u89D2-ZH_CN
ENCODING 35282
SWIDTH 1000 0
DWIDTH 12 0
BBX 12 12 0 -1
BITMAP
0000
2000
3F00
4100
FFC0
4440
7FC0
4440
7FC0
4440
4440
84C0
ENDCHAR
STARTCHAR u89E3-ZH_CN
ENCODING 35299
SWIDTH 1000 0
DWIDTH 12 0
BBX 12 12 0 -1
BITMAP
0000
23E0
3920
4920
FE60
5400
7D40
55E0
7E40
55E0
5440
9440
ENDCHAR
STARTCHAR u89E6-ZH_CN
ENCODING 35302
SWIDTH 1000 0
DWIDTH 12 0
BBX 12 12 0 -1
BITMAP
0000
4080
7080
93E0
FAA0
AAA0
FAA0
ABE0
F880
A8A0
A8E0
AB20
ENDCHAR
STARTCHAR u8A00
ENCODING 35328
SWIDTH 1000 0
DWIDTH 12 0
BBX 12 12 0 -1
BITMAP
0000
0800
0400
FFE0
0000
7FC0
0000
7FC0
0000
7FC0
4040
7FC0
ENDCHAR
STARTCHAR u8B66-ZH_HK
ENCODING 35686
SWIDTH 1000 0
DWIDTH 12 0
BBX 12 14 0 -2
BITMAP
0000
0000
5200
FFE0
5540
7580
0A40
FFE0
0000
7FC0
2080
2080
3F80
0000
ENDCHAR
STARTCHAR u8BA4
ENCODING 35748
SWIDTH 1000 0
DWIDTH 12 0
BBX 12 12 0 -1
BITMAP
0000
4100
2100
0100
0100
E100
2100
2280
2280
2440
3440
2820
ENDCHAR
STARTCHAR u8BA9
ENCODING 35753
SWIDTH 1000 0
DWIDTH 12 0
BBX 12 12 0 -1
BITMAP
0000
4100
2100
0100
0100
E1E0
2100
2100
2100
2900
3100
2FE0
ENDCHAR
STARTCHAR u8BD7
ENCODING 35799
SWIDTH 1000 0
DWIDTH 12 0
BBX 12 12 0 -1
BITMAP
0000
8100
47C0
0100
0100
CFE0
4040
4FE0
4440
5240
6040
41C0
ENDCHAR
STARTCHAR u8BED
ENCODING 35821
SWIDTH 1000 0
DWIDTH 12 0
BBX 12 12 0 -1
BITMAP
0000
8FE0
4200
0FC0
0440
C440
5FE0
4000
4FE0
4820
6820
4FE0
ENDCHAR
STARTCHAR u8BEF
ENCODING 35823
SWIDTH 1000 0
DWIDTH 12 0
BBX 12 12 0 -1
BITMAP
0000
8FC0
4840
0840
0FC0
C000
4FC0
4100
5FE0
4100
6280
5C60
ENDCHAR
STARTCHAR u8BF4
ENCODING 35828
SWIDTH 1000 0
DWIDTH 12 0
BBX 12 12 0 -1
BITMAP
0000
8840
4480
0FC0
0840
C840
4840
4FC0
4480
54A0
68A0
50E0
ENDCHAR
STARTCHAR u8C61
ENCODING 35937
SWIDTH 1000 0
DWIDTH 12 0
BBX 12 12 0 -1
BITMAP
0000
3F00
4100
FFC0
4440
7FC0
1C20
E640
1980
E740
1920
E600
ENDCHAR
STARTCHAR u8D25
ENCODING 36133
SWIDTH 1000 0
DWIDTH 12 0
BBX 12 12 0 -1
BITMAP
0000
FA00
8A00
ABE0
AC40
AA40
AA40
AA80
AA80
2100
5280
8C60
ENDCHAR
STARTCHAR u8D2D
ENCODING 36141
SWIDTH 1000 0
DWIDTH 12 0
BBX 12 12 0 -1
BITMAP
0000
FA00
8BE0
AC20
A920
A920
A920
AAA0
AAA0
2760
5020
88C0
ENDCHAR
STARTCHAR u8D34
ENCODING 36148
SWIDTH 1000 0
DWIDTH 12 0
BBX 12 12 0 -1
BITMAP
0000
F880
8880
A8E0
A880
A880
A880
ABE0
AA20
2220
5220
8BE0
ENDCHAR
STARTCHAR u8D39
ENCODING 36153
SWIDTH 1000 0
DWIDTH 12 0
BBX 12 12 0 -1
BITMAP
0000
1200
FFC0
1240
FFE0
9220
FFE0
4040
4440
4440
1B00
E0E0
ENDCHAR
STARTCHAR u8D62
ENCODING 36194
SWIDTH 1000 0
DWIDTH 12 0
BBX 12 12 0 -1
BITMAP
0000
0400
FFE0
4000
7FC0
2080
FFE0
AAA0
EAA0
AAE0
E4A0
AAA0
ENDCHAR
STARTCHAR u8D70
ENCODING 36208
SWIDTH 1000 0
DWIDTH 12 0
BBX 12 12 0 -1
BITMAP
0000
0400
7FC0
0400
0400
FFE0
0400
2400
27C0
2400
5C00
83E0
ENDCHAR
STARTCHAR u8D77
ENCODING 36215
SWIDTH 1000 0
DWIDTH 12 0
BBX 12 12 0 -1
BITMAP
0000
13C0
7840
1040
1040
FBC0
1200
5220
5A20
51E0
B000
8FE0
ENDCHAR
STARTCHAR u8D8A
ENCODING 36234
SWIDTH 1000 0
DWIDTH 12 0
BBX 12 12 0 -1
BITMAP
0000
10A0
7BE0
1280
12A0
FAA0
1240
52C0
5B60
52A0
B000
8FE0
ENDCHAR
STARTCHAR u8DDD
ENCODING 36317
SWIDTH 1000 0
DWIDTH 12 0
BBX 12 12 0 -1
BITMAP
0000
F7E0
9400
9400
F7E0
2420
2420
B420
A7E0
A400
B400
C7E0
ENDCHAR
STARTCHAR u8DE8
ENCODING 36328
SWIDTH 1000 0
DWIDTH 12 0
BBX 12 12 0 -1
BITMAP
0000
F100
9FE0
9280
F440
2BA0
2000
B7E0
A200
A3C0
B040
C180
ENDCHAR
STARTCHAR u8DEF
ENCODING 36335
SWIDTH 1000 0
DWIDTH 12 0
BBX 12 12 0 -1
BITMAP
0000
F200
93C0
9440
FA80
2100
2280
BC60
A7C0
A440
B440
C7C0
ENDCHAR
STARTCHAR u8DF3
ENCODING 36339
SWIDTH 1000 0
DWIDTH 12 0
BBX 12 12 0 -1
BITMAP
0000
F280
9280
9AA0
F6C0
2280
2280
B6C0
AAA0
A280
B4A0
C8E0
ENDCHAR
STARTCHAR u8EAB
ENCODING 36523
SWIDTH 1000 0
DWIDTH 12 0
BBX 12 12 0 -1
BITMAP
0000
0800
3F80
2080
3F80
2080
3FA0
20C0
FF80
0480
1880
E380
ENDCHAR
STARTCHAR u8F66
ENCODING 36710
SWIDTH 1000 0
DWIDTH 12 0
BBX 12 12 0 -1
BITMAP
0000
0800
FFE0
1000
2400
4400
7FC0
0400
0400
FFE0
0400
0400
ENDCHAR
STARTCHAR u8F6E
ENCODING 36718
SWIDTH 1000 0
DWIDTH 12 0
BBX 12 12 0 -1
BITMAP
0000
2100
F280
4440
A820
A400
F440
2480
3700
E420
2420
23E0
ENDCHAR
STARTCHAR u8F8E
ENCODING 36750
SWIDTH 1000 0
DWIDTH 12 0
BBX 12 12 0 -1
BITMAP
0000
2520
F520
4A40
A520
A520
F000
2FE0
3920
EFE0
2920
2FE0
ENDCHAR
STARTCHAR u8F93
ENCODING 36755
SWIDTH 1000 0
DWIDTH 12 0
BBX 12 12 0 -1
BITMAP
0000
2100
F280
4440
ABA0
A000
FEA0
2AA0
3EA0
EAA0
2E20
2A60
ENDCHAR
STARTCHAR u8FA8-ZH_HK
ENCODING 36776
SWIDTH 1000 0
DWIDTH 12 0
BBX 12 14 0 -2
BITMAP
0000
0000
2280
FBE0
4A40
4A40
FBE0
2A80
2280
FBE0
2280
4480
4880
0000
ENDCHAR
STARTCHAR u8FB9
ENCODING 36793
SWIDTH 1000 0
DWIDTH 12 0
BBX 12 12 0 -1
BITMAP
0000
8200
4200
0FE0
0220
C220
4220
4420
4420
48C0
A000
9FE0
ENDCHAR
STARTCHAR u8FBE
ENCODING 36798
SWIDTH 1000 0
DWIDTH 12 0
BBX 12 12 0 -1
BITMAP
0000
8100
4100
0100
1FE0
C100
4280
4280
4440
4820
A000
9FE0
ENDCHAR
STARTCHAR u8FC5
ENCODING 36805
SWIDTH 1000 0
DWIDTH 12 0
BBX 12 12 0 -1
BITMAP
0000
9F80
4080
0480
0480
DF80
4480
44A0
44A0
4440
A000
9FE0
ENDCHAR
STARTCHAR u8FC7
ENCODING 36807
SWIDTH 1000 0
DWIDTH 12 0
BBX 12 12 0 -1
BITMAP
0000
8080
4080
1FE0
0080
C880
4480
4480
4080
4380
A000
9FE0
ENDCHAR
STARTCHAR u8FD1
ENCODING 36817
SWIDTH 1000 0
DWIDTH 12 0
BBX 12 12 0 -1
BITMAP
0000
80C0
4F00
0800
0800
CFE0
4880
4880
4880
5080
A000
9FE0
ENDCHAR
STARTCHAR u8FD4-ZH_CN
ENCODING 36820
SWIDTH 1000 0
DWIDTH 12 0
BBX 12 12 0 -1
BITMAP
0000
80E0
4F00
0800
0800
CFE0
4C20
4A40
4980
5660
A000
9FE0
ENDCHAR
STARTCHAR u8FD8
ENCODING 36824
SWIDTH 1000 0
DWIDTH 12 0
BBX 12 12 0 -1
BITMAP
0000
9FE0
4100
0200
0200
C680
4A40
5220
4200
4200
A000
9FE0
ENDCHAR
STARTCHAR u8FD9
ENCODING 36825
SWIDTH 1000 0
DWIDTH 12 0
BBX 12 12 0 -1
BITMAP
0000
8200
4100
1FE0
0040
C440
4280
4100
4280
4C60
A000
9FE0
ENDCHAR
STARTCHAR u8FDB
ENCODING 36827
SWIDTH 1000 0
DWIDTH 12 0
BBX 12 12 0 -1
BITMAP
0000
8480
4480
1FE0
0480
C480
5FE0
4480
4480
4880
A000
9FE0
ENDCHAR
STARTCHAR u9000
ENCODING 36864
SWIDTH 1000 0
DWIDTH 12 0
BBX 12 12 0 -1
BITMAP
0000
8FC0
4840
0FC0
0840
CFC0
4A20
4940
4A80
4C60
A000
9FE0
ENDCHAR
STARTCHAR u9002
ENCODING 36866
SWIDTH 1000 0
DWIDTH 12 0
BBX 12 12 0 -1
BITMAP
0000
80C0
4F00
0100
1FE0
C100
4FC0
4840
4840
4FC0
A000
9FE0
ENDCHAR
STARTCHAR u9009
ENCODING 36873
SWIDTH 1000 0
DWIDTH 12 0
BBX 12 12 0 -1
BITMAP
0000
8900
4FC0
1100
0100
DFE0
4480
4480
48A0
50E0
A000
9FE0
ENDCHAR
STARTCHAR u900F
ENCODING 36879
SWIDTH 1000 0
DWIDTH 12 0
BBX 12 12 0 -1
BITMAP
0000
8FC0
4100
1FE0
0540
D920
4FC0
4260
4420
58C0
A000
9FE0
ENDCHAR
STARTCHAR u901A
ENCODING 36890
SWIDTH 1000 0
DWIDTH 12 0
BBX 12 12 0 -1
BITMAP
0000
8FC0
4280
0100
0FE0
C920
4FE0
4920
4FE0
4920
A000
9FE0
ENDCHAR
STARTCHAR u901F
ENCODING 36895
SWIDTH 1000 0
DWIDTH 12 0
BBX 12 12 0 -1
BITMAP
0000
8100
5FE0
0100
0FE0
C920
4FE0
4380
4540
5920
A100
9FE0
ENDCHAR
STARTCHAR u9020
ENCODING 36896
SWIDTH 1000 0
DWIDTH 12 0
BBX 12 12 0 -1
BITMAP
0000
8900
4FC0
1100
0100
DFE0
4000
4FC0
4840
4FC0
A000
9FE0
ENDCHAR
STARTCHAR u9047
ENCODING 36935
SWIDTH 1000 0
DWIDTH 12 0
BBX 12 12 0 -1
BITMAP
0000
8FC0
4940
0FC0
0940
CFC0
4100
5FE0
5120
57A0
A000
9FE0
ENDCHAR
STARTCHAR u9053
ENCODING 36947
SWIDTH 1000 0
DWIDTH 12 0
BBX 12 12 0 -1
BITMAP
0000
8480
5FE0
0200
0FC0
C840
4FC0
4840
4840
4FC0
A000
9FE0
ENDCHAR
STARTCHAR u9057
ENCODING 36951
SWIDTH 1000 0
DWIDTH 12 0
BBX 12 12 0 -1
BITMAP
0000
8100
4FC0
0940
1FE0
C000
4FC0
4940
4940
4280
AC40
9FE0
ENDCHAR
STARTCHAR u906D
ENCODING 36973
SWIDTH 1000 0
DWIDTH 12 0
BBX 12 12 0 -1
BITMAP
0000
8280
5FE0
0280
0FE0
CAA0
4FE0
4AA0
4FE0
4440
A440
9FE0
ENDCHAR
STARTCHAR u907F-ZH_HK
ENCODING 36991
SWIDTH 1000 0
DWIDTH 12 0
BBX 12 14 0 -2
BITMAP
0000
0000
9C80
57E0
1540
9D40
53E0
1C80
F7E0
5480
5C80
A000
9FE0
0000
ENDCHAR
STARTCHAR u90BB-ZH_CN
ENCODING 37051
SWIDTH 1000 0
DWIDTH 12 0
BBX 12 12 0 -1
BITMAP
0000
11E0
2920
4520
8340
2140
1120
FF20
0520
49C0
3100
0D00
ENDCHAR
STARTCHAR u90E8
ENCODING 37096
SWIDTH 1000 0
DWIDTH 12 0
BBX 12 12 0 -1
BITMAP
0000
11E0
7D20
0120
4540
2940
FF20
0120
7D20
45C0
4500
7D00
ENDCHAR
STARTCHAR u90FD
ENCODING 37117
SWIDTH 1000 0
DWIDTH 12 0
BBX 12 12 0 -1
BITMAP
0000
21E0
F520
2920
3140
FD40
2120
7D20
C520
7DC0
4500
7D00
ENDCHAR
STARTCHAR u91CC
ENCODING 37324
SWIDTH 1000 0
DWIDTH 12 0
BBX 12 12 0 -1
BITMAP
0000
7FC0
4440
4440
7FC0
4440
4440
7FC0
0400
7FC0
0400
FFE0
ENDCHAR
STARTCHAR u91CD
ENCODING 37325
SWIDTH 1000 0
DWIDTH 12 0
BBX 12 12 0 -1
BITMAP
0000
7FC0
0400
FFE0
4440
7FC0
4440
7FC0
0400
7FC0
0400
FFE0
ENDCHAR
STARTCHAR u91CE
ENCODING 37326
SWIDTH 1000 0
DWIDTH 12 0
BBX 12 12 0 -1
BITMAP
0000
FBE0
A820
F940
A880
AFE0
F8A0
20C0
F880
2080
3880
C380
ENDCHAR
STARTCHAR u91CF
ENCODING 37327
SWIDTH 1000 0
DWIDTH 12 0
BBX 12 12 0 -1
BITMAP
0000
7FC0
4040
7FC0
4040
FFE0
4440
7FC0
4440
7FC0
0400
FFE0
ENDCHAR
STARTCHAR u91D1
ENCODING 37329
SWIDTH 1000 0
DWIDTH 12 0
BBX 12 12 0 -1
BITMAP
0000
0400
0A00
3180
C060
3F80
0400
0400
7FC0
2480
1500
FFE0
ENDCHAR
STARTCHAR u9274-ZH_HK
ENCODING 37492
SWIDTH 1000 0
DWIDTH 12 0
BBX 12 14 0 -2
BITMAP
0000
0000
1200
93E0
9500
9080
9040
1F00
2480
7FC0
A4A0
1500
FFE0
0000
ENDCHAR
STARTCHAR u9501
ENCODING 38145
SWIDTH 1000 0
DWIDTH 12 0
BBX 12 12 0 -1
BITMAP
0000
4920
6540
8100
EFE0
4820
4920
E920
4920
4280
6440
4820
ENDCHAR
STARTCHAR u950B
ENCODING 38155
SWIDTH 1000 0
DWIDTH 12 0
BBX 12 12 0 -1
BITMAP
0000
4200
63C0
8C40
E380
4D60
47C0
E100
47C0
4100
6FE0
4100
ENDCHAR
STARTCHAR u9524
ENCODING 38180
SWIDTH 1000 0
DWIDTH 12 0
BBX 12 12 0 -1
BITMAP
0000
40C0
6700
8100
EFE0
4540
4FE0
E540
4540
4FE0
6100
47C0
ENDCHAR
STARTCHAR u952E
ENCODING 38190
SWIDTH 1000 0
DWIDTH 12 0
BBX 12 12 0 -1
BITMAP
0000
4080
7BE0
88A0
EFE0
50A0
5BE0
E880
4BE0
5880
6C80
53E0
ENDCHAR
STARTCHAR u955C
ENCODING 38236
SWIDTH 1000 0
DWIDTH 12 0
BBX 12 12 0 -1
BITMAP
0000
4100
6FC0
8480
FFE0
4840
4FC0
E840
4FC0
4480
68A0
50E0
ENDCHAR
STARTCHAR u957F
ENCODING 38271
SWIDTH 1000 0
DWIDTH 12 0
BBX 12 12 0 -1
BITMAP
0000
2080
2100
2200
2C00
2000
FFE0
2400
2200
2100
2880
3060
ENDCHAR
STARTCHAR u95EA
ENCODING 38378
SWIDTH 1000 0
DWIDTH 12 0
BBX 12 12 0 -1
BITMAP
0000
9FE0
4020
0420
8420
8420
8A20
8A20
9120
A0A0
8020
80E0
ENDCHAR
STARTCHAR u95ED
ENCODING 38381
SWIDTH 1000 0
DWIDTH 12 0
BBX 12 12 0 -1
BITMAP
0000
9FE0
4020
0220
8220
BFA0
8220
8620
8A20
B220
8620
80E0
ENDCHAR
STARTCHAR u95F4
ENCODING 38388
SWIDTH 1000 0
DWIDTH 12 0
BBX 12 12 0 -1
BITMAP
0000
9FE0
4020
0020
9F20
9120
9120
9F20
9120
9120
9F20
8060
ENDCHAR
STARTCHAR u961F
ENCODING 38431
SWIDTH 1000 0
DWIDTH 12 0
BBX 12 12 0 -1
BITMAP
0000
F100
9100
9100
A100
A100
9100
9280
9280
E440
8440
8820
ENDCHAR
STARTCHAR u9635
ENCODING 38453
SWIDTH 1000 0
DWIDTH 12 0
BBX 12 12 0 -1
BITMAP
0000
E200
AFE0
A400
A900
C900
AFE0
A100
A100
EFE0
8100
8100
ENDCHAR
STARTCHAR u9636
ENCODING 38454
SWIDTH 1000 0
DWIDTH 12 0
BBX 12 12 0 -1
BITMAP
0000
E100
A280
A440
B820
C440
A440
A440
A440
E440
8440
8840
ENDCHAR
STARTCHAR u963B
ENCODING 38459
SWIDTH 1000 0
DWIDTH 12 0
BBX 12 12 0 -1
BITMAP
0000
EFC0
A840
A840
AFC0
C840
A840
AFC0
A840
E840
8840
9FE0
ENDCHAR
STARTCHAR u9644
ENCODING 38468
SWIDTH 1000 0
DWIDTH 12 0
BBX 12 12 0 -1
BITMAP
0000
E440
A440
ABE0
A840
D840
AA40
A940
A940
E840
8840
88C0
ENDCHAR
STARTCHAR u964D
ENCODING 38477
SWIDTH 1000 0
DWIDTH 12 0
BBX 12 12 0 -1
BITMAP
0000
E200
A3C0
AC40
A380
DC60
A100
BFE0
A900
E900
8FE0
8100
ENDCHAR
STARTCHAR u9650
ENCODING 38480
SWIDTH 1000 0
DWIDTH 12 0
BBX 12 12 0 -1
BITMAP
0000
EFC0
A840
AFC0
A840
C840
AFC0
A920
A940
E880
8A40
8C20
ENDCHAR
STARTCHAR u9664
ENCODING 38500
SWIDTH 1000 0
DWIDTH 12 0
BBX 12 12 0 -1
BITMAP
0000
E380
A440
B820
A7C0
C100
A100
AFE0
A100
E940
9120
8300
ENDCHAR
STARTCHAR u9669
ENCODING 38505
SWIDTH 1000 0
DWIDTH 12 0
BBX 12 12 0 -1
BITMAP
0000
E100
A280
A440
A820
C7C0
A000
AA20
A540
E540
8080
8FE0
ENDCHAR
STARTCHAR u968F
ENCODING 38543
SWIDTH 1000 0
DWIDTH 12 0
BBX 12 12 0 -1
BITMAP
0000
E100
B7E0
A900
A3C0
C640
BBC0
AA40
ABC0
EA40
9400
93E0
ENDCHAR
STARTCHAR u969C
ENCODING 38556
SWIDTH 1000 0
DWIDTH 12 0
BBX 12 12 0 -1
BITMAP
0000
E100
AFC0
A480
BFE0
C840
AFC0
A840
AFC0
E100
9FE0
8100
ENDCHAR
STARTCHAR u96BE
ENCODING 38590
SWIDTH 1000 0
DWIDTH 12 0
BBX 12 12 0 -1
BITMAP
0000
0280
F280
17E0
9C80
57E0
5480
2480
27E0
5480
5480
87E0
ENDCHAR
STARTCHAR u96C6
ENCODING 38598
SWIDTH 1000 0
DWIDTH 12 0
BBX 12 12 0 -1
BITMAP
0000
2400
7FC0
C400
7FC0
4400
7FC0
0400
FFE0
1500
2480
C460
ENDCHAR
STARTCHAR u96F6-ZH_CN
ENCODING 38646
SWIDTH 1000 0
DWIDTH 12 0
BBX 12 12 0 -1
BITMAP
0000
7FC0
0400
FFE0
B5A0
0E00
3180
C460
0200
7FC0
0880
0700
ENDCHAR
STARTCHAR u96F7
ENCODING 38647
SWIDTH 1000 0
DWIDTH 12 0
BBX 12 12 0 -1
BITMAP
0000
7FC0
0400
FFE0
8420
B5A0
0000
7FC0
4440
7FC0
4440
7FC0
ENDCHAR
STARTCHAR u9700
ENCODING 38656
SWIDTH 1000 0
DWIDTH 12 0
BBX 12 12 0 -1
BITMAP
0000
7FC0
0400
FFE0
8420
B5A0
0000
FFE0
0800
FFE0
9120
9160
ENDCHAR
STARTCHAR u9706
ENCODING 38662
SWIDTH 1000 0
DWIDTH 12 0
BBX 12 12 0 -1
BITMAP
0000
7FC0
0400
FFE0
9520
EFC0
2100
4FE0
E100
AFE0
6000
9FE0
ENDCHAR
STARTCHAR u9707
ENCODING 38663
SWIDTH 1000 0
DWIDTH 12 0
BBX 12 12 0 -1
BITMAP
0000
7FC0
0400
FFE0
B5A0
0400
7FE0
4000
7FE0
5140
5480
9860
ENDCHAR
STARTCHAR u9759
ENCODING 38745
SWIDTH 1000 0
DWIDTH 12 0
BBX 12 12 0 -1
BITMAP
0000
2100
F9C0
2240
FBE0
20A0
FFE0
48A0
7BE0
4880
7880
4980
ENDCHAR
STARTCHAR u975E-ZH_CN
ENCODING 38750
SWIDTH 1000 0
DWIDTH 12 0
BBX 12 12 0 -1
BITMAP
0000
1100
1100
F1E0
1100
1100
F1E0
1100
1100
F1E0
1100
1100
ENDCHAR
STARTCHAR u9760-ZH_CN
ENCODING 38752
SWIDTH 1000 0
DWIDTH 12 0
BBX 12 12 0 -1
BITMAP
0000
4400
7FC0
8400
FFE0
4040
7FC0
1100
F1E0
1100
F1E0
1100
ENDCHAR
STARTCHAR u9762
ENCODING 38754
SWIDTH 1000 0
DWIDTH 12 0
BBX 12 12 0 -1
BITMAP
0000
FFE0
0400
0800
FFE0
9120
9F20
9120
9120
9F20
9120
FFE0
ENDCHAR
STARTCHAR u9774
ENCODING 38772
SWIDTH 1000 0
DWIDTH 12 0
BBX 12 12 0 -1
BITMAP
0000
5280
FA80
5280
76A0
22C0
FB80
AA80
FA80
22A0
FAA0
22E0
ENDCHAR
STARTCHAR u97F3
ENCODING 38899
SWIDTH 1000 0
DWIDTH 12 0
BBX 12 12 0 -1
BITMAP
0000
0400
7FC0
2080
1100
FFE0
0000
3F80
2080
3F80
2080
3F80
ENDCHAR
STARTCHAR u9879
ENCODING 39033
SWIDTH 1000 0
DWIDTH 12 0
BBX 12 12 0 -1
BITMAP
0000
0FE0
E100
4FE0
4820
4920
4920
4920
6920
C280
0440
0820
ENDCHAR
STARTCHAR u9884
ENCODING 39044
SWIDTH 1000 0
DWIDTH 12 0
BBX 12 12 0 -1
BITMAP
0000
FBE0
0880
53E0
2220
FAA0
2AA0
32A0
22A0
2080
2140
6220
ENDCHAR
STARTCHAR u9886
ENCODING 39046
SWIDTH 1000 0
DWIDTH 12 0
BBX 12 12 0 -1
BITMAP
0000
23E0
2080
53E0
8E20
22A0
12A0
FAA0
0AA0
5080
2140
1220
ENDCHAR
STARTCHAR u989D
ENCODING 39069
SWIDTH 1000 0
DWIDTH 12 0
BBX 12 12 0 -1
BITMAP
0000
13E0
FC80
A7E0
3A20
CAA0
32A0
CEA0
7AA0
4880
4940
7A20
ENDCHAR
STARTCHAR u98CE
ENCODING 39118
SWIDTH 1000 0
DWIDTH 12 0
BBX 12 12 0 -1
BITMAP
0000
7FC0
4040
4140
5140
4A40
4440
4440
4A40
5140
4060
8020
ENDCHAR
STARTCHAR u98DE
ENCODING 39134
SWIDTH 1000 0
DWIDTH 12 0
BBX 12 12 0 -1
BITMAP
0000
FF00
0120
0140
0180
0140
0120
0100
0100
00A0
00A0
0040
ENDCHAR
STARTCHAR u9996
ENCODING 39318
SWIDTH 1000 0
DWIDTH 12 0
BBX 12 12 0 -1
BITMAP
0000
2080
1100
FFE0
0400
7FC0
4040
7FC0
4040
7FC0
4040
7FC0
ENDCHAR
STARTCHAR u9A6C
ENCODING 39532
SWIDTH 1000 0
DWIDTH 12 0
BBX 12 12 0 -1
BITMAP
0000
7F80
0080
2080
2080
2080
3FE0
0020
0020
FF20
0020
01C0
ENDCHAR
STARTCHAR u9A91
ENCODING 39569
SWIDTH 1000 0
DWIDTH 12 0
BBX 12 12 0 -1
BITMAP
0000
E100
2FE0
A100
A280
A440
FFE0
1040
3740
D540
1740
60C0
ENDCHAR
STARTCHAR u9AA8-ZH_CN
ENCODING 39592
SWIDTH 1000 0
DWIDTH 12 0
BBX 12 12 0 -1
BITMAP
0000
3F80
2080
3C80
2480
FFE0
A0A0
3F80
2080
3F80
2080
2180
ENDCHAR
STARTCHAR u9AD8
ENCODING 39640
SWIDTH 1000 0
DWIDTH 12 0
BBX 12 12 0 -1
BITMAP
0000
0400
FFE0
2080
3F80
0000
FFE0
8020
9F20
9120
9F20
8060
ENDCHAR
STARTCHAR u9B44
ENCODING 39748
SWIDTH 1000 0
DWIDTH 12 0
BBX 12 12 0 -1
BITMAP
0000
4400
8FC0
EA40
AFC0
AA40
EFC0
A280
A540
A5C0
E920
11E0
ENDCHAR
STARTCHAR u9B54
ENCODING 39764
SWIDTH 1000 0
DWIDTH 12 0
BBX 12 12 0 -1
BITMAP
0000
0200
7FE0
4880
7FE0
5DC0
6AA0
5FC0
5240
5FC0
4520
B9E0
ENDCHAR
STARTCHAR u9E6B
ENCODING 40555
SWIDTH 1000 0
DWIDTH 12 0
BBX 12 12 0 -1
BITMAP
0000
1140
FD20
4BE0
7900
AAA0
64E0
3F80
2480
3FE0
0020
FEC0
ENDCHAR
STARTCHAR u9F20
ENCODING 40736
SWIDTH 1000 0
DWIDTH 12 0
BBX 12 12 0 -1
BITMAP
0000
7BC0
4040
7BC0
4040
7FC0
0000
5540
4CC0
5540
4CC0
7720
ENDCHAR
STARTCHAR u9F99
ENCODING 40857
SWIDTH 1000 0
DWIDTH 12 0
BBX 12 12 0 -1
BITMAP
0000
0900
0880
FFE0
0A00
0A00
1240
1280
2300
2220
4620
89E0
ENDCHAR
STARTCHAR uFF01-ZH_CN
ENCODING 65281
SWIDTH 1000 0
DWIDTH 12 0
BBX 12 12 0 -1
BITMAP
0000
0000
2000
7000
7000
7000
2000
2000
2000
0000
2000
0000
ENDCHAR
STARTCHAR uFF1A-ZH_CN
ENCODING 65306
SWIDTH 1000 0
DWIDTH 12 0
BBX 12 12 0 -1
BITMAP
0000
0000
0000
3000
3000
0000
0000
0000
0000
3000
3000
0000
ENDCHAR
ENDFONT
